<?xml version="1.0" encoding="UTF-8" standalone="no"?>
<svg
   width="1024"
   height="1024"
   version="1.1"
   id="svg1508"
   sodipodi:docname="icon-rounded.svg"
   inkscape:version="1.2.2 (b0a8486541, 2022-12-01)"
   xml:space="preserve"
   inkscape:export-filename="icon-rounded-64.png"
   inkscape:export-xdpi="6"
   inkscape:export-ydpi="6"
   xmlns:inkscape="http://www.inkscape.org/namespaces/inkscape"
   xmlns:sodipodi="http://sodipodi.sourceforge.net/DTD/sodipodi-0.dtd"
   xmlns="http://www.w3.org/2000/svg"
   xmlns:svg="http://www.w3.org/2000/svg"
   xmlns:rdf="http://www.w3.org/1999/02/22-rdf-syntax-ns#"
   xmlns:cc="http://creativecommons.org/ns#"
   xmlns:dc="http://purl.org/dc/elements/1.1/"><title
     id="title5583">icon</title><sodipodi:namedview
     id="namedview1510"
     pagecolor="#ffffff"
     bordercolor="#111111"
     borderopacity="1"
     inkscape:showpageshadow="0"
     inkscape:pageopacity="0"
     inkscape:pagecheckerboard="1"
     inkscape:deskcolor="#d1d1d1"
     showgrid="false"
     inkscape:zoom="0.660841"
     inkscape:cx="425.21575"
     inkscape:cy="532.6546"
     inkscape:window-width="1920"
     inkscape:window-height="1137"
     inkscape:window-x="1912"
     inkscape:window-y="-8"
     inkscape:window-maximized="1"
     inkscape:current-layer="svg1508"
     showguides="false"><inkscape:grid
       type="xygrid"
       id="grid1626" /></sodipodi:namedview><defs
     id="defs1502"><rect
   x="1119.7852"
   y="388.89839"
   width="531.14138"
   height="93.819845"
   id="rect927" /><filter
   id="blur_shadow"
   x="-0.034951456"
   y="-0.034951456"
   width="1.0699029"
   height="1.0699029"><feGaussianBlur
     stdDeviation="12"
     id="feGaussianBlur1499" /></filter><rect
   x="-37.986927"
   y="54.26704"
   width="511.66064"
   height="190.70988"
   id="rect1457" /><clipPath
   id="presentation_clip_path"
   clipPathUnits="userSpaceOnUse">
   <rect
   x="0"
   y="0"
   width="11030"
   height="4030"
   id="rect2" />
  </clipPath>
  
 
   
  <rect
   x="-37.986927"
   y="54.26704"
   width="511.66064"
   height="190.70988"
   id="rect1457-2" /></defs><path
     d="m 924,355.412 c 0,-9.782 0,-18.35 -0.056,-28.133 -0.049,-8.241 -0.144,-16.48 -0.368,-24.716 -0.484,-17.954 -1.543,-36.061 -4.736,-53.813 -3.238,-18.01 -8.526,-34.77 -16.859,-51.133 a 171.963,171.963 0 0 0 -31.661,-43.559 172.06,172.06 0 0 0 -43.574,-31.64 c -16.381,-8.335 -33.159,-13.621 -51.188,-16.858 -17.755,-3.188 -35.867,-4.245 -53.82,-4.73 -8.243,-0.223 -16.485,-0.317 -24.73,-0.368 -9.788,-0.06 -19.576,-0.055 -29.364,-0.055 L 553.997,100 h -84.999 l -111.637,0.407 c -9.807,0 -19.614,-0.005 -29.421,0.055 -8.262,0.051 -16.52,0.145 -24.778,0.368 -17.995,0.485 -36.148,1.543 -53.945,4.735 -18.053,3.236 -34.857,8.52 -51.259,16.849 a 172.405,172.405 0 0 0 -43.667,31.644 171.994,171.994 0 0 0 -31.718,43.551 c -8.356,16.372 -13.654,33.143 -16.9,51.162 -3.196,17.746 -4.255,35.846 -4.742,53.792 -0.222,8.237 -0.318,16.476 -0.368,24.716 -0.06,9.784 -0.563,21.937 -0.563,31.72 v 195.999 l 0.508,112.429 c 0,9.796 -0.004,19.592 0.055,29.388 0.05,8.252 0.146,16.502 0.369,24.751 0.486,17.976 1.547,36.109 4.746,53.886 3.245,18.032 8.542,34.818 16.891,51.201 a 172.24,172.24 0 0 0 31.722,43.619 172.444,172.444 0 0 0 43.659,31.684 c 16.412,8.346 33.224,13.639 51.288,16.88 17.789,3.193 35.936,4.252 53.924,4.737 8.258,0.223 16.517,0.318 24.779,0.368 9.807,0.059 19.613,0.059 29.42,0.059 h 310.283 c 9.788,0 19.576,0 29.364,-0.059 8.245,-0.05 16.487,-0.145 24.73,-0.368 17.96,-0.486 36.078,-1.546 53.841,-4.741 18.018,-3.241 34.788,-8.532 51.159,-16.873 a 172.004,172.004 0 0 0 43.582,-31.687 172.23,172.23 0 0 0 31.659,-43.612 c 8.337,-16.391 13.625,-33.184 16.865,-51.229 3.19,-17.77 4.248,-35.896 4.733,-53.865 0.223,-8.25 0.318,-16.5 0.367,-24.751 C 924,687.019 924,677.223 924,667.427 Z"
     fill="rgba(0,0,0,0.3)"
     filter="url(#blur_shadow)"
     transform="translate(0,10)"
     id="path1504"
     style="display:inline" /><path
     d="m 924,355.412 c 0,-9.782 0,-18.35 -0.056,-28.133 -0.049,-8.241 -0.144,-16.48 -0.368,-24.716 -0.484,-17.954 -1.543,-36.061 -4.736,-53.813 -3.238,-18.01 -8.526,-34.77 -16.859,-51.133 a 171.963,171.963 0 0 0 -31.661,-43.559 172.06,172.06 0 0 0 -43.574,-31.64 c -16.381,-8.335 -33.159,-13.621 -51.188,-16.858 -17.755,-3.188 -35.867,-4.245 -53.82,-4.73 -8.243,-0.223 -16.485,-0.317 -24.73,-0.368 -9.788,-0.06 -19.576,-0.055 -29.364,-0.055 L 553.997,100 h -84.999 l -111.637,0.407 c -9.807,0 -19.614,-0.005 -29.421,0.055 -8.262,0.051 -16.52,0.145 -24.778,0.368 -17.995,0.485 -36.148,1.543 -53.945,4.735 -18.053,3.236 -34.857,8.52 -51.259,16.849 a 172.405,172.405 0 0 0 -43.667,31.644 171.994,171.994 0 0 0 -31.718,43.551 c -8.356,16.372 -13.654,33.143 -16.9,51.162 -3.196,17.746 -4.255,35.846 -4.742,53.792 -0.222,8.237 -0.318,16.476 -0.368,24.716 -0.06,9.784 -0.563,21.937 -0.563,31.72 v 195.999 l 0.508,112.429 c 0,9.796 -0.004,19.592 0.055,29.388 0.05,8.252 0.146,16.502 0.369,24.751 0.486,17.976 1.547,36.109 4.746,53.886 3.245,18.032 8.542,34.818 16.891,51.201 a 172.24,172.24 0 0 0 31.722,43.619 172.444,172.444 0 0 0 43.659,31.684 c 16.412,8.346 33.224,13.639 51.288,16.88 17.789,3.193 35.936,4.252 53.924,4.737 8.258,0.223 16.517,0.318 24.779,0.368 9.807,0.059 19.613,0.059 29.42,0.059 h 310.283 c 9.788,0 19.576,0 29.364,-0.059 8.245,-0.05 16.487,-0.145 24.73,-0.368 17.96,-0.486 36.078,-1.546 53.841,-4.741 18.018,-3.241 34.788,-8.532 51.159,-16.873 a 172.004,172.004 0 0 0 43.582,-31.687 172.23,172.23 0 0 0 31.659,-43.612 c 8.337,-16.391 13.625,-33.184 16.865,-51.229 3.19,-17.77 4.248,-35.896 4.733,-53.865 0.223,-8.25 0.318,-16.5 0.367,-24.751 C 924,687.019 924,677.223 924,667.427 Z"
     fill="#fff"
     id="path1506"
     style="display:inline;fill:#ffffff;fill-opacity:1" /><text
     xml:space="preserve"
     id="text1455"
     style="font-style:normal;font-variant:normal;font-weight:600;font-stretch:normal;font-size:36.7638px;line-height:1.25;font-family:Montserrat;-inkscape-font-specification:'Montserrat, Semi-Bold';font-variant-ligatures:normal;font-variant-caps:normal;font-variant-numeric:normal;font-variant-east-asian:normal;letter-spacing:0px;word-spacing:0px;white-space:pre;shape-inside:url(#rect1457);display:inline;fill:#1a1a1a;fill-opacity:1;stroke:none"
     transform="matrix(7.9788632,0,0,7.9788632,459.86108,-272.54349)"><tspan
       x="-37.986328"
       y="88.05695"
       id="tspan21642"><tspan
         style="font-size:30.0795px"
         id="tspan21640">Chart</tspan></tspan></text><text
     xml:space="preserve"
     id="text1455-9"
     style="font-style:normal;font-variant:normal;font-weight:600;font-stretch:normal;font-size:36.7638px;line-height:1.25;font-family:Montserrat;-inkscape-font-specification:'Montserrat, Semi-Bold';font-variant-ligatures:normal;font-variant-caps:normal;font-variant-numeric:normal;font-variant-east-asian:normal;letter-spacing:0px;word-spacing:0px;white-space:pre;shape-inside:url(#rect1457-2);display:inline;fill:#1a1a1a;fill-opacity:1;stroke:none"
     transform="matrix(7.9788632,0,0,7.9788632,619.2726,-25.464955)"><tspan
       x="-37.986328"
       y="88.05695"
       id="tspan21646"><tspan
         style="font-size:30.0795px"
         id="tspan21644">Fx</tspan></tspan></text><metadata
     id="metadata5581"><rdf:RDF><cc:Work
         rdf:about=""><dc:title>icon</dc:title></cc:Work></rdf:RDF></metadata><text
     xml:space="preserve"
     id="text925"
     style="font-style:normal;font-weight:normal;font-size:40px;line-height:1.25;font-family:sans-serif;letter-spacing:0px;word-spacing:0px;white-space:pre;shape-inside:url(#rect927);display:inline;fill:#000000;fill-opacity:1;stroke:none" /><path
     fill="#f9bd5b"
     stroke="none"
     d="m 191.11917,802.0068 c -0.52854,0.48208 -1.20836,0.72315 -1.81264,0.60262 -0.60408,0 -1.2839,-0.24107 -1.81244,-0.84365 -0.52875,-0.48208 -0.98196,-1.32573 -1.2841,-2.16935 -0.2264,-0.96415 -0.37747,-1.92834 -0.37747,-2.89249 0,-1.08469 0.2264,-2.04884 0.52854,-2.89249 0.37768,-0.84363 0.83089,-1.56673 1.43497,-2.04885 l 42.06782,-35.07131 1.28389,-1.08468 1.43497,0.72312 20.694,9.76212 59.06121,-27.96063 1.35942,-0.72315 1.28392,0.96419 47.73214,36.87911 59.061,-25.18867 0.83089,-0.36158 0.90621,0.36158 25.22571,9.40055 41.84123,16.27019 23.86607,-42.42305 0.90622,-1.56674 1.35943,-0.24107 53.77435,-11.08785 1.5105,-0.36157 1.20836,1.56676 40.10412,50.85946 c 0.076,0 0.076,0 0.15186,0 0.75515,0 1.43496,-0.24106 2.19012,-0.60261 0.67981,-0.36154 1.43497,-0.84362 2.11478,-1.56674 1.58604,-1.56676 3.021,-4.09768 4.38043,-7.1107 3.17208,-6.99014 5.81559,-16.99331 8.08126,-28.92479 4.90917,-25.18871 8.23231,-58.69326 11.17778,-92.31837 3.021,-33.98665 5.66452,-67.97331 8.98766,-93.40303 0.83069,-6.50806 1.73711,-12.53408 2.64333,-17.71645 0.98175,-5.54391 2.03925,-10.24417 3.17208,-14.22136 1.2839,-4.45922 2.71886,-7.83379 4.22936,-10.24421 0.90642,-1.56676 1.88817,-2.65141 2.94566,-3.37453 0.60409,-0.48211 1.13283,-0.84365 1.73692,-1.08468 0.67981,-0.12054 1.28409,-0.24108 1.88816,-0.24108 0.076,0 0.076,0 0.076,0 h 0.076 c 1.13282,0 2.26586,0.36155 3.32315,0.96415 1.05728,0.60262 1.9637,1.56678 2.86992,2.77196 0.75536,1.08469 1.51051,2.41042 2.19033,3.85665 0.60427,1.44622 1.20836,3.01299 1.7371,4.70029 0.90622,3.25404 1.7371,6.99014 2.41672,11.44941 0.67981,4.09767 1.20856,8.79793 1.66158,13.85978 1.81263,19.76529 2.34138,46.03866 3.2476,72.19152 0.83088,25.55025 2.03925,51.221 5.13578,70.38369 0.75535,4.57976 1.58604,8.79798 2.56779,12.53409 0.90643,3.37457 1.96372,6.38757 3.17227,8.91848 0.52856,1.08469 1.13283,2.16938 1.73691,3.013 0.60428,0.84364 1.20856,1.56676 1.81263,2.04884 0.60429,0.6026 1.28392,0.96415 1.96372,1.20519 0.67982,0.24107 1.35943,0.48211 2.19033,0.48211 0.076,0 0.2266,0 0.30213,0 0.67962,-0.12054 1.2839,-0.24107 1.81244,-0.60262 0.45322,-0.24107 0.90642,-0.6026 1.2841,-1.08468 0.45301,-0.60258 0.83069,-1.32574 1.13283,-2.04884 0.45321,-0.96416 0.83068,-2.04885 1.13282,-3.37457 0.75535,-2.89246 1.2839,-6.38757 1.7371,-10.36471 0.45322,-4.33873 0.75536,-9.15952 0.98176,-14.4624 1.05749,-22.29621 1.13302,-51.82362 5.58899,-81.2305 2.34119,-15.06502 5.73987,-30.13002 11.02673,-44.23088 5.36238,-14.22134 12.53721,-27.59908 22.28002,-38.92794 9.6673,-11.20839 21.82704,-20.60896 37.23418,-27.23756 15.10501,-6.38756 33.45783,-10.12367 55.66234,-10.12367 7.47697,0 15.33181,0.36154 23.63947,1.32572 0.67981,0 1.28409,0.36155 1.81263,0.96416 0.52875,0.48208 0.90643,1.32573 1.20837,2.16935 0.30214,0.96418 0.37767,1.92834 0.37767,3.01302 -0.076,0.96416 -0.2266,1.92831 -0.60407,2.77196 -0.37768,0.84361 -0.8309,1.56676 -1.43516,2.04884 -0.52856,0.36155 -1.20837,0.60257 -1.81245,0.48207 -8.15678,-0.84364 -15.86036,-1.20519 -23.18646,-1.20519 -21.44936,0 -39.1977,3.49507 -53.84969,9.7621 -14.34986,6.14653 -25.75425,14.82397 -34.74192,25.30922 -8.91193,10.48524 -15.48269,22.53725 -20.31633,35.55341 -4.90918,13.13668 -8.08125,27.11702 -10.27136,41.09734 -4.38065,28.68378 -4.38065,57.48806 -5.3624,79.30217 -0.30214,5.66445 -0.60428,10.84682 -1.13282,15.54708 -0.52875,4.94133 -1.20856,9.28006 -2.11479,12.89566 -0.52873,2.04884 -1.13282,3.85665 -1.81263,5.42341 -0.8307,1.8078 -1.66157,3.25404 -2.64334,4.57976 -0.98194,1.20519 -2.11477,2.28988 -3.39866,3.01299 -1.20836,0.60262 -2.49246,1.0847 -3.92743,1.2052 -0.2266,0 -0.45301,0 -0.60407,0 -1.43497,0 -2.71908,-0.36154 -4.00297,-0.84362 -1.2839,-0.48208 -2.49225,-1.20522 -3.62528,-2.28988 -1.13282,-0.96419 -2.19011,-2.04885 -3.17207,-3.49511 -0.90622,-1.32569 -1.81244,-2.89245 -2.64333,-4.57975 -1.5105,-3.25404 -2.86993,-7.11068 -4.07828,-11.5699 -1.13304,-4.21822 -2.11479,-8.91852 -2.94567,-14.10086 -3.24742,-19.7653 -4.45597,-46.2797 -5.36219,-72.6736 -0.83089,-25.79129 -1.35943,-51.70309 -3.17207,-71.1068 -0.37768,-4.7003 -0.90643,-8.91849 -1.5105,-12.77514 -0.52875,-3.49506 -1.20837,-6.62859 -1.96372,-9.15951 -0.30214,-1.2052 -0.67982,-2.16938 -1.05729,-3.013 -0.30214,-0.72314 -0.67982,-1.32573 -0.98196,-1.8078 -0.30214,-0.36157 -0.52854,-0.60261 -0.83068,-0.72315 -0.2266,-0.24107 -0.52875,-0.24107 -0.83089,-0.24107 -0.076,0 -0.15186,0 -0.22661,0 -0.076,0 -0.15186,0.12054 -0.30194,0.12054 -0.30213,0.24107 -0.60428,0.72312 -0.90642,1.20518 -0.98175,1.56678 -1.88816,3.97719 -2.71886,6.86965 -1.05728,3.4951 -1.96371,7.71329 -2.86993,12.53408 -0.90642,5.06184 -1.7371,10.72629 -2.49245,16.87282 -3.32315,25.3092 -5.89094,59.05482 -8.91194,92.80043 -3.021,34.10717 -6.41967,68.33486 -11.40439,94.00565 -2.56779,13.3777 -5.58899,24.46556 -9.13854,32.29935 -1.9637,4.33873 -4.07849,7.83379 -6.34415,10.12368 -1.2841,1.32572 -2.56799,2.28988 -3.92742,2.89248 -1.43496,0.72312 -2.86993,1.0847 -4.3049,1.0847 -0.67981,0 -1.28389,-0.12054 -1.9637,-0.24108 l -0.98176,-0.12053 -0.83088,-1.08469 -39.80197,-50.37738 -50.90423,10.48523 -24.47034,43.38722 -1.51051,2.53095 -2.03925,-0.84365 -43.88026,-17.11384 -24.31929,-9.03902 -59.51422,25.30921 -1.28389,0.48208 -1.20856,-0.84363 -47.65662,-36.7586 -58.75886,27.96063 -1.0575,0.48208 -1.05729,-0.48208 -20.31632,-9.76213 z"
     id="path53-4"
     style="display:inline;fill:#feb341;fill-opacity:1;stroke-width:7.27283;stroke-dasharray:none;paint-order:stroke fill markers" /></svg>
