<?xml version="1.0" encoding="UTF-8" standalone="no"?>
<!-- Created with Inkscape (http://www.inkscape.org/) -->

<svg
   width="1024"
   height="1024"
   viewBox="0 0 270.93332 270.93334"
   version="1.1"
   id="svg1"
   inkscape:version="1.2.2 (b0a8486541, 2022-12-01)"
   sodipodi:docname="icon.svg"
   inkscape:export-filename="icon-64.png"
   inkscape:export-xdpi="6"
   inkscape:export-ydpi="6"
   xmlns:inkscape="http://www.inkscape.org/namespaces/inkscape"
   xmlns:sodipodi="http://sodipodi.sourceforge.net/DTD/sodipodi-0.dtd"
   xmlns="http://www.w3.org/2000/svg"
   xmlns:svg="http://www.w3.org/2000/svg">
  <sodipodi:namedview
     id="namedview1"
     pagecolor="#ffffff"
     bordercolor="#000000"
     borderopacity="0.25"
     inkscape:showpageshadow="2"
     inkscape:pageopacity="0.0"
     inkscape:pagecheckerboard="0"
     inkscape:deskcolor="#d1d1d1"
     inkscape:document-units="mm"
     inkscape:zoom="0.51892185"
     inkscape:cx="75.155825"
     inkscape:cy="393.12278"
     inkscape:window-width="1444"
     inkscape:window-height="1199"
     inkscape:window-x="2178"
     inkscape:window-y="568"
     inkscape:window-maximized="0"
     inkscape:current-layer="g3"
     showgrid="false" />
  <defs
     id="defs1" />
  <g
     inkscape:label="Layer 1"
     inkscape:groupmode="layer"
     id="layer1"
     transform="translate(-32.514343,-42.33326)">
    <g
       id="g3"
       transform="matrix(1.8706347,0,0,1.8706347,-28.308304,-36.856804)">
      <rect
         style="fill:#fcb342;fill-opacity:1;stroke-width:3;stroke-linecap:round;stroke-miterlimit:4;stroke-dasharray:none"
         id="rect6551"
         width="144.83498"
         height="144.83498"
         x="32.514545"
         y="42.33326"
         inkscape:export-filename="chart_fx_tm_v2.png"
         inkscape:export-xdpi="35.07436"
         inkscape:export-ydpi="35.07436" />
      <g
         id="text6559"
         style="font-size:20.985px;line-height:1.25;fill:#ffffff;stroke-width:0.314774"
         aria-label="ChartFx"
         transform="matrix(1.1503056,0,0,1.1503056,-6.1859331,-25.627579)">
        <path
           style="font-weight:bold;font-family:'Rocky Text';-inkscape-font-specification:'Rocky Text Bold'"
           d="m 49.025084,175.48207 q 0.986295,0 1.825695,-0.46167 0.8394,-0.46167 1.531905,-1.36403 l 2.371305,2.2454 q -0.96531,1.2591 -2.56017,2.03554 -1.59486,0.77645 -3.294645,0.77645 -1.63683,0 -3.06381,-0.58758 -1.42698,-0.58758 -2.455245,-1.59486 -1.028265,-1.00728 -1.63683,-2.39229 -0.58758,-1.38501 -0.58758,-2.97987 0,-1.59486 0.58758,-2.97987 0.608565,-1.406 1.63683,-2.41328 1.04925,-1.00728 2.455245,-1.59486 1.42698,-0.58758 3.06381,-0.58758 1.76274,0 3.378585,0.77645 1.615845,0.77644 2.581155,2.07751 l -2.43426,2.30835 q -0.71349,-0.96531 -1.615845,-1.44796 -0.88137,-0.50364 -1.909635,-0.50364 -0.860385,0 -1.59486,0.33576 -0.734475,0.33576 -1.280085,0.92334 -0.524625,0.56659 -0.8394,1.38501 -0.29379,0.79743 -0.29379,1.72077 0,0.92334 0.314775,1.72077 0.314775,0.79743 0.860385,1.38501 0.566595,0.56659 1.322055,0.90235 0.75546,0.31478 1.63683,0.31478 z m 7.617541,3.02184 v -15.00428 l 3.39957,-0.52462 v 6.46338 q 0.62955,-0.94433 1.489935,-1.42698 0.88137,-0.50364 1.93062,-0.50364 1.573875,0 2.581155,1.04925 1.00728,1.02826 1.00728,2.64411 v 7.30278 h -3.39957 v -6.31649 q 0,-0.90235 -0.50364,-1.44796 -0.482655,-0.5666 -1.30107,-0.5666 -0.54561,0 -1.00728,0.23084 -0.440685,0.20985 -0.79743,0.67152 v 7.42869 z m 16.200421,0.16788 q -1.63683,0 -2.68608,-0.90236 -1.04925,-0.92334 -1.04925,-2.3713 0,-1.48994 1.112205,-2.30835 1.112205,-0.8394 3.10578,-0.8394 0.58758,0 1.196145,0.12591 0.608565,0.10492 1.322055,0.37773 v -0.88137 q 0,-0.77645 -0.54561,-1.17516 -0.524625,-0.39872 -1.59486,-0.39872 -0.608565,0 -1.364025,0.18887 -0.734475,0.16788 -1.6788,0.56659 l -1.17516,-2.3713 q 1.322055,-0.58758 2.539185,-0.88137 1.238115,-0.29379 2.43426,-0.29379 2.245395,0 3.48351,1.07023 1.2591,1.07024 1.2591,3.00086 v 6.92505 h -3.3576 v -0.94433 q -0.71349,0.58758 -1.42698,0.86039 -0.71349,0.25182 -1.573875,0.25182 z m -0.608565,-3.33662 q 0,0.52463 0.440685,0.81842 0.440685,0.2728 1.21713,0.2728 0.524625,0 1.00728,-0.12591 0.50364,-0.14689 0.944325,-0.4197 v -1.38501 q -0.46167,-0.10492 -0.944325,-0.16788 -0.46167,-0.063 -0.92334,-0.063 -0.8394,0 -1.30107,0.2728 -0.440685,0.27281 -0.440685,0.79743 z m 9.527199,3.16874 v -10.82826 h 3.39957 v 2.45524 q 0.524625,-1.34304 1.238115,-1.99357 0.734475,-0.67152 1.699785,-0.67152 0.356745,0.021 0.58758,0.0839 0.230835,0.042 0.54561,0.18886 v 2.91692 q -0.314775,-0.1469 -0.734475,-0.23084 -0.4197,-0.10492 -0.860385,-0.10492 -0.75546,0 -1.42698,0.37773 -0.650535,0.35674 -1.04925,0.96531 v 6.84111 z m 10.912194,-3.33662 v -4.86852 h -2.0985 v -2.62312 h 2.0985 v -3.00086 l 3.39957,-0.6925 v 3.69336 h 2.89593 v 2.62312 h -2.89593 v 4.197 q 0,0.71349 0.314775,1.00728 0.33576,0.29379 1.112205,0.29379 0.29379,0 0.58758,-0.042 0.29379,-0.042 0.79743,-0.18886 v 2.74903 q -0.46167,0.1469 -1.13319,0.23084 -0.67152,0.10492 -1.196145,0.10492 -1.909635,0 -2.89593,-0.88137 -0.986295,-0.88137 -0.986295,-2.60214 z"
           id="path2" />
        <path
           style="letter-spacing:-1.71979px"
           d="m 101.40364,178.50391 v -14.6895 h 10.03083 v 1.40599 h -8.41499 v 5.26724 h 5.74989 v 1.40599 h -5.74989 v 6.61028 z m 8.62582,0 3.90321,-5.26724 -3.71434,-4.97344 h 1.82569 l 2.83298,3.88222 2.791,-3.88222 h 1.74176 l -3.67238,4.93147 3.96617,5.30921 h -1.8257 l -3.06381,-4.17602 -3.04282,4.17602 z"
           id="path3" />
      </g>
      <g
         id="g6569"
         transform="matrix(0.81473509,0,0,0.81473509,-20.269656,280.0653)">
        <g
           id="g1">
          <path
             style="fill:none;stroke:#ffffff;stroke-width:13.8505;stroke-linecap:butt;stroke-linejoin:miter;stroke-miterlimit:4;stroke-dasharray:none;stroke-opacity:1"
             d="m 46.823594,101.5715 75.684846,15.9394 43.30195,-49.98"
             id="path6553"
             sodipodi:nodetypes="ccc"
             transform="matrix(1.2273928,0,0,1.2273928,24.87883,-343.75014)" />
          <path
             id="path6561"
             style="fill:#ffffff;fill-opacity:1;stroke:none;stroke-width:19.9622;stroke-linecap:round;stroke-miterlimit:4;stroke-dasharray:none"
             d="m 153.76069,42.3334 a 27.152266,27.152266 0 0 0 -3.56361,13.4162 27.152266,27.152266 0 0 0 27.15235,27.1523 V 69.1658 A 13.416389,13.416389 0 0 1 163.93319,55.7496 13.416389,13.416389 0 0 1 177.34943,42.3334 Z"
             transform="matrix(1.2273928,0,0,1.2273928,24.87883,-343.75014)" />
          <path
             id="path6563"
             style="fill:#ffffff;fill-opacity:1;stroke:none;stroke-width:19.9622;stroke-linecap:round;stroke-miterlimit:4;stroke-dasharray:none"
             d="m 32.514344,72.0923 v 13.7356 a 13.416389,13.416389 0 0 1 5.2e-4,0 13.416389,13.416389 0 0 1 13.41623,13.4162 13.416389,13.416389 0 0 1 -13.41623,13.4168 13.416389,13.416389 0 0 1 -5.2e-4,0 v 13.7356 a 27.152266,27.152266 0 0 0 5.2e-4,0 27.152266,27.152266 0 0 0 27.15183,-27.1524 27.152266,27.152266 0 0 0 -27.15183,-27.1518 27.152266,27.152266 0 0 0 -5.2e-4,0 z"
             transform="matrix(1.2273928,0,0,1.2273928,24.87883,-343.75014)" />
          <circle
             style="fill:#ffffff;fill-opacity:1;stroke:none;stroke-width:24.5015;stroke-linecap:round;stroke-miterlimit:4;stroke-dasharray:none"
             id="circle6565"
             cx="175.20891"
             cy="-198.73465"
             r="33.326496" />
        </g>
        <circle
           style="fill:#fcb342;fill-opacity:1;stroke:none;stroke-width:12.1065;stroke-linecap:round;stroke-miterlimit:4;stroke-dasharray:none"
           id="circle6567"
           cx="175.20891"
           cy="-198.73465"
           r="16.46718" />
      </g>
    </g>
  </g>
</svg>
