<?xml version="1.0" encoding="UTF-8" standalone="no"?>
<!-- Created with Inkscape (http://www.inkscape.org/) -->

<svg
   width="1024"
   height="1024"
   viewBox="0 0 270.93332 270.93334"
   version="1.1"
   id="svg1"
   inkscape:version="1.2.2 (b0a8486541, 2022-12-01)"
   sodipodi:docname="logo_round.svg"
   inkscape:export-filename="chart_fx_logo_v7.png"
   inkscape:export-xdpi="64"
   inkscape:export-ydpi="64"
   xmlns:inkscape="http://www.inkscape.org/namespaces/inkscape"
   xmlns:sodipodi="http://sodipodi.sourceforge.net/DTD/sodipodi-0.dtd"
   xmlns="http://www.w3.org/2000/svg"
   xmlns:svg="http://www.w3.org/2000/svg">
  <sodipodi:namedview
     id="namedview1"
     pagecolor="#ffffff"
     bordercolor="#000000"
     borderopacity="0.25"
     inkscape:showpageshadow="2"
     inkscape:pageopacity="0.0"
     inkscape:pagecheckerboard="true"
     inkscape:deskcolor="#d1d1d1"
     inkscape:document-units="mm"
     inkscape:zoom="0.51892185"
     inkscape:cx="231.24869"
     inkscape:cy="356.5084"
     inkscape:window-width="1444"
     inkscape:window-height="1199"
     inkscape:window-x="1529"
     inkscape:window-y="204"
     inkscape:window-maximized="0"
     inkscape:current-layer="g492"
     showgrid="false" />
  <defs
     id="defs1" />
  <g
     inkscape:label="Layer 1"
     inkscape:groupmode="layer"
     id="layer1"
     transform="translate(-32.514343,-42.33326)">
    <g
       id="g3"
       transform="translate(-0.08880513)">
      <path
         d="m 277.07817,136.36935 c 0,-2.58816 0,-4.85511 -0.0148,-7.44353 -0.013,-2.18043 -0.0381,-4.36033 -0.0974,-6.53944 -0.12806,-4.75033 -0.40826,-9.54114 -1.25307,-14.23802 -0.85672,-4.76515 -2.25584,-9.199563 -4.46061,-13.528943 a 45.498543,45.498543 0 0 0 -8.37697,-11.524986 45.524208,45.524208 0 0 0 -11.52896,-8.371417 c -4.33414,-2.205302 -8.77332,-3.603889 -13.54349,-4.460346 -4.69768,-0.843491 -9.48981,-1.123156 -14.23987,-1.251479 -2.18096,-0.059 -4.36166,-0.08387 -6.54315,-0.09737 -2.58974,-0.01588 -5.17948,-0.01455 -7.76922,-0.01455 l -30.06911,-0.107685 h -22.48931 l -29.53729,0.107685 c -2.59477,0 -5.18954,-0.0013 -7.78431,0.01455 -2.18599,0.01349 -4.37092,0.03836 -6.55585,0.09737 -4.76117,0.128323 -9.56415,0.408252 -14.272933,1.252802 -4.77653,0.856192 -9.22258,2.25425 -13.56228,4.457965 a 45.615489,45.615489 0 0 0 -11.55356,8.372475 45.506745,45.506745 0 0 0 -8.39205,11.522866 c -2.21086,4.33176 -3.61263,8.769093 -4.47146,13.536613 -0.84561,4.6953 -1.1258,9.48426 -1.25466,14.23247 -0.0587,2.17937 -0.0841,4.35928 -0.0974,6.53944 -0.0159,2.58869 -0.14896,5.80417 -0.14896,8.39259 v 51.85806 l 0.1344,29.74684 c 0,2.59186 -10e-4,5.18372 0.0146,7.77558 0.0132,2.18334 0.0386,4.36615 0.0976,6.5487 0.12859,4.75615 0.40931,9.55384 1.25571,14.25734 0.85857,4.77096 2.26007,9.21226 4.46908,13.54693 a 45.571833,45.571833 0 0 0 8.39311,11.54086 45.625808,45.625808 0 0 0 11.55144,8.38306 c 4.34234,2.20821 8.79052,3.60865 13.56995,4.46616 4.706673,0.84482 9.508063,1.12501 14.267383,1.25333 2.18493,0.059 4.37013,0.0841 6.55611,0.0974 2.59477,0.0156 5.18928,0.0156 7.78405,0.0156 h 82.09571 c 2.58974,0 5.17948,0 7.76922,-0.0156 2.18149,-0.0132 4.36219,-0.0384 6.54315,-0.0974 4.75191,-0.12858 9.54563,-0.40904 14.24543,-1.25438 4.76726,-0.85752 9.20432,-2.25743 13.53582,-4.46432 a 45.509391,45.509391 0 0 0 11.53107,-8.38385 45.569187,45.569187 0 0 0 8.37644,-11.53901 c 2.20583,-4.33678 3.60495,-8.77993 4.4622,-13.55434 0.84402,-4.70164 1.12395,-9.49748 1.25227,-14.25178 0.059,-2.18281 0.0841,-4.36562 0.0971,-6.5487 0.0148,-2.59186 0.0148,-5.18372 0.0148,-7.77558 z"
         fill="#fff"
         id="path1506-3"
         style="fill:#fcb342;fill-opacity:1;stroke-width:0.264583" />
      <g
         id="g492"
         transform="matrix(1.5116546,0,0,1.5125828,9.3818596,4.2299658)">
        <path
           d="m 177.43777,87.227541 c 0,-1.71938 0,-3.22538 -0.0102,-4.94494 -0.009,-1.44852 -0.0253,-2.89669 -0.0647,-4.34434 -0.0851,-3.155778 -0.27122,-6.338443 -0.83245,-9.458719 -0.56914,-3.165621 -1.49861,-6.111529 -2.9633,-8.987654 a 30.225833,30.225975 0 0 0 -5.56502,-7.656377 30.242884,30.243026 0 0 0 -7.65898,-5.56138 c -2.87929,-1.465041 -5.82834,-2.394155 -8.99729,-2.963134 -3.12078,-0.560354 -6.30432,-0.746134 -9.4599,-0.831393 -1.44887,-0.03917 -2.89756,-0.05565 -4.34678,-0.06468 -1.72043,-0.01016 -3.44086,-0.01016 -5.1613,-0.01016 L 112.4023,42.333194 H 97.461649 l -19.62237,0.07157 c -1.72377,0 -3.44754,-0.0023 -5.17131,0.01016 -1.45221,0.009 -2.90371,0.02551 -4.35521,0.06468 -3.16297,0.08523 -6.35372,0.271209 -9.48188,0.832263 -3.17317,0.568797 -6.1268,1.497562 -9.00977,2.961553 a 30.303524,30.303666 0 0 0 -7.67532,5.562079 30.231282,30.231424 0 0 0 -5.57505,7.654966 c -1.46873,2.877706 -2.39996,5.825556 -2.97051,8.992756 -0.56176,3.119215 -0.7479,6.300662 -0.8335,9.455027 -0.039,1.44783 -0.0559,2.89599 -0.0647,4.34434 -0.0105,1.71973 -0.099,3.85588 -0.099,5.57543 v 34.450802 l 0.0893,19.76166 c 0,1.72185 0,3.4437 0.0105,5.16554 0.009,1.45045 0.0257,2.90056 0.0649,4.35049 0.0854,3.15965 0.27192,6.34689 0.8342,9.47156 0.57038,3.16949 1.50143,6.11997 2.96893,8.9996 a 30.274522,30.274664 0 0 0 5.57575,7.66694 30.310379,30.310521 0 0 0 7.67392,5.5691 c 2.88473,1.46697 5.83976,2.39732 9.01486,2.967 3.12676,0.56124 6.31645,0.74737 9.47819,0.83263 1.4515,0.0392 2.90318,0.0559 4.35539,0.0647 1.72377,0.0102 3.44737,0.0102 5.17114,0.0102 h 54.538241 c 1.72042,0 3.44086,0 5.16129,-0.0102 1.44922,-0.009 2.89791,-0.0255 4.34678,-0.0647 3.15681,-0.0855 6.3414,-0.27175 9.4636,-0.83334 3.16702,-0.56967 6.11465,-1.49967 8.99219,-2.96576 a 30.233041,30.233182 0 0 0 7.66039,-5.56963 30.272765,30.272907 0 0 0 5.56467,-7.66571 c 1.46539,-2.88104 2.39487,-5.83275 2.96435,-9.00452 0.5607,-3.12344 0.74667,-6.30945 0.8319,-9.46787 0.0392,-1.4501 0.0559,-2.90021 0.0646,-4.35049 0.0102,-1.72184 0.0102,-3.44369 0.0102,-5.16554 z"
           fill="#fff"
           id="path1178"
           style="fill:#fcb342;fill-opacity:1;stroke-width:0.175769" />
        <g
           id="text6559"
           style="font-size:20.985px;line-height:1.25;fill:#ffffff;stroke-width:0.314774"
           aria-label="ChartFx"
           transform="matrix(1.4226008,0,0,1.4226008,-9.6095663,-74.247652)">
          <path
             style="font-weight:bold;font-family:'Rocky Text';-inkscape-font-specification:'Rocky Text Bold'"
             d="m 49.025084,175.48207 q 0.986295,0 1.825695,-0.46167 0.8394,-0.46167 1.531905,-1.36403 l 2.371305,2.2454 q -0.96531,1.2591 -2.56017,2.03554 -1.59486,0.77645 -3.294645,0.77645 -1.63683,0 -3.06381,-0.58758 -1.42698,-0.58758 -2.455245,-1.59486 -1.028265,-1.00728 -1.63683,-2.39229 -0.58758,-1.38501 -0.58758,-2.97987 0,-1.59486 0.58758,-2.97987 0.608565,-1.406 1.63683,-2.41328 1.04925,-1.00728 2.455245,-1.59486 1.42698,-0.58758 3.06381,-0.58758 1.76274,0 3.378585,0.77645 1.615845,0.77644 2.581155,2.07751 l -2.43426,2.30835 q -0.71349,-0.96531 -1.615845,-1.44796 -0.88137,-0.50364 -1.909635,-0.50364 -0.860385,0 -1.59486,0.33576 -0.734475,0.33576 -1.280085,0.92334 -0.524625,0.56659 -0.8394,1.38501 -0.29379,0.79743 -0.29379,1.72077 0,0.92334 0.314775,1.72077 0.314775,0.79743 0.860385,1.38501 0.566595,0.56659 1.322055,0.90235 0.75546,0.31478 1.63683,0.31478 z m 7.617541,3.02184 v -15.00428 l 3.39957,-0.52462 v 6.46338 q 0.62955,-0.94433 1.489935,-1.42698 0.88137,-0.50364 1.93062,-0.50364 1.573875,0 2.581155,1.04925 1.00728,1.02826 1.00728,2.64411 v 7.30278 h -3.39957 v -6.31649 q 0,-0.90235 -0.50364,-1.44796 -0.482655,-0.5666 -1.30107,-0.5666 -0.54561,0 -1.00728,0.23084 -0.440685,0.20985 -0.79743,0.67152 v 7.42869 z m 16.200421,0.16788 q -1.63683,0 -2.68608,-0.90236 -1.04925,-0.92334 -1.04925,-2.3713 0,-1.48994 1.112205,-2.30835 1.112205,-0.8394 3.10578,-0.8394 0.58758,0 1.196145,0.12591 0.608565,0.10492 1.322055,0.37773 v -0.88137 q 0,-0.77645 -0.54561,-1.17516 -0.524625,-0.39872 -1.59486,-0.39872 -0.608565,0 -1.364025,0.18887 -0.734475,0.16788 -1.6788,0.56659 l -1.17516,-2.3713 q 1.322055,-0.58758 2.539185,-0.88137 1.238115,-0.29379 2.43426,-0.29379 2.245395,0 3.48351,1.07023 1.2591,1.07024 1.2591,3.00086 v 6.92505 h -3.3576 v -0.94433 q -0.71349,0.58758 -1.42698,0.86039 -0.71349,0.25182 -1.573875,0.25182 z m -0.608565,-3.33662 q 0,0.52463 0.440685,0.81842 0.440685,0.2728 1.21713,0.2728 0.524625,0 1.00728,-0.12591 0.50364,-0.14689 0.944325,-0.4197 v -1.38501 q -0.46167,-0.10492 -0.944325,-0.16788 -0.46167,-0.063 -0.92334,-0.063 -0.8394,0 -1.30107,0.2728 -0.440685,0.27281 -0.440685,0.79743 z m 9.527199,3.16874 v -10.82826 h 3.39957 v 2.45524 q 0.524625,-1.34304 1.238115,-1.99357 0.734475,-0.67152 1.699785,-0.67152 0.356745,0.021 0.58758,0.0839 0.230835,0.042 0.54561,0.18886 v 2.91692 q -0.314775,-0.1469 -0.734475,-0.23084 -0.4197,-0.10492 -0.860385,-0.10492 -0.75546,0 -1.42698,0.37773 -0.650535,0.35674 -1.04925,0.96531 v 6.84111 z m 10.912194,-3.33662 v -4.86852 h -2.0985 v -2.62312 h 2.0985 v -3.00086 l 3.39957,-0.6925 v 3.69336 h 2.89593 v 2.62312 h -2.89593 v 4.197 q 0,0.71349 0.314775,1.00728 0.33576,0.29379 1.112205,0.29379 0.29379,0 0.58758,-0.042 0.29379,-0.042 0.79743,-0.18886 v 2.74903 q -0.46167,0.1469 -1.13319,0.23084 -0.67152,0.10492 -1.196145,0.10492 -1.909635,0 -2.89593,-0.88137 -0.986295,-0.88137 -0.986295,-2.60214 z"
             id="path2" />
          <path
             style="letter-spacing:-1.71979px"
             d="m 101.40364,178.50391 v -14.6895 h 10.03083 v 1.40599 h -8.41499 v 5.26724 h 5.74989 v 1.40599 h -5.74989 v 6.61028 z m 8.62582,0 3.90321,-5.26724 -3.71434,-4.97344 h 1.82569 l 2.83298,3.88222 2.791,-3.88222 h 1.74176 l -3.67238,4.93147 3.96617,5.30921 h -1.8257 l -3.06381,-4.17602 -3.04282,4.17602 z"
             id="path3" />
        </g>
        <g
           id="g480">
          <path
             id="path1506"
             style="fill:#ffffff;fill-opacity:1;stroke-width:0.175769"
             d="m 153.90944,43.889237 a 27.185579,27.16894 0 0 0 -3.56774,13.424504 27.185579,27.16894 0 0 0 27.09033,27.165784 c -0.001,-0.717046 -1.2e-4,-1.432857 -0.005,-2.196765 -0.009,-1.448519 -0.0252,-2.89679 -0.0646,-4.344438 -0.0649,-2.407334 -0.18987,-4.830021 -0.49403,-7.229016 a 13.43285,13.424628 0 0 1 -12.77441,-13.395565 13.43285,13.424628 0 0 1 2.0686,-7.133415 30.242884,30.243026 0 0 0 -5.8198,-3.906221 c -2.06358,-1.049993 -4.16464,-1.820725 -6.35516,-2.384868 z" />
          <path
             style="fill:none;stroke:#ffffff;stroke-width:13.8632;stroke-linecap:butt;stroke-linejoin:miter;stroke-miterlimit:4;stroke-dasharray:none;stroke-opacity:1"
             d="m 46.84115,103.16371 75.7777,15.94918 43.35508,-50.010689"
             id="path6553"
             sodipodi:nodetypes="ccc" />
          <path
             id="path6563"
             style="fill:#ffffff;fill-opacity:1;stroke:none;stroke-width:19.9806;stroke-linecap:round;stroke-miterlimit:4;stroke-dasharray:none"
             d="m 32.514344,73.666402 v 13.744035 a 13.43285,13.424628 0 0 1 5.2e-4,0 13.43285,13.424628 0 0 1 13.432691,13.424443 13.43285,13.424628 0 0 1 -13.432691,13.42504 13.43285,13.424628 0 0 1 -5.2e-4,0 v 13.74403 a 27.185579,27.16894 0 0 0 5.2e-4,0 27.185579,27.16894 0 0 0 27.185143,-27.16907 27.185579,27.16894 0 0 0 -27.185143,-27.168478 27.185579,27.16894 0 0 0 -5.2e-4,0 z" />
          <ellipse
             style="fill:#ffffff;fill-opacity:1;stroke:none;stroke-width:19.9806;stroke-linecap:round;stroke-miterlimit:4;stroke-dasharray:none"
             id="circle6565"
             cx="122.58957"
             cy="119.75159"
             rx="27.185579"
             ry="27.16894" />
          <ellipse
             style="fill:#fcb342;fill-opacity:1;stroke:none;stroke-width:9.87267;stroke-linecap:round;stroke-miterlimit:4;stroke-dasharray:none"
             id="circle6567"
             cx="122.58957"
             cy="119.75159"
             rx="13.43285"
             ry="13.424628" />
        </g>
      </g>
    </g>
  </g>
</svg>
