<?xml version="1.0" encoding="UTF-8"?>
<!DOCTYPE svg PUBLIC "-//W3C//DTD SVG 1.1//EN" "http://www.w3.org/Graphics/SVG/1.1/DTD/svg11.dtd">
<svg version="1.2" width="110.3mm" height="40.3mm" viewBox="0 0 11030 4030" preserveAspectRatio="xMidYMid" fill-rule="evenodd" stroke-width="28.222" stroke-linejoin="round" xmlns="http://www.w3.org/2000/svg" xmlns:ooo="http://xml.openoffice.org/svg/export" xmlns:xlink="http://www.w3.org/1999/xlink" xmlns:presentation="http://sun.com/xmlns/staroffice/presentation" xmlns:smil="http://www.w3.org/2001/SMIL20/" xmlns:anim="urn:oasis:names:tc:opendocument:xmlns:animation:1.0" xml:space="preserve">
 <defs class="ClipPathGroup">
  <clipPath id="presentation_clip_path" clipPathUnits="userSpaceOnUse">
   <rect x="0" y="0" width="11030" height="4030"/>
  </clipPath>
  <clipPath id="presentation_clip_path_shrink" clipPathUnits="userSpaceOnUse">
   <rect x="11" y="4" width="11008" height="4022"/>
  </clipPath>
 </defs>
 <defs class="TextShapeIndex">
  <g ooo:slide="id1" ooo:id-list="id3 id4 id5"/>
 </defs>
 <defs class="EmbeddedBulletChars">
  <g id="bullet-char-template-57356" transform="scale(0.00048828125,-0.00048828125)">
   <path d="M 580,1141 L 1163,571 580,0 -4,571 580,1141 Z"/>
  </g>
  <g id="bullet-char-template-57354" transform="scale(0.00048828125,-0.00048828125)">
   <path d="M 8,1128 L 1137,1128 1137,0 8,0 8,1128 Z"/>
  </g>
  <g id="bullet-char-template-10146" transform="scale(0.00048828125,-0.00048828125)">
   <path d="M 174,0 L 602,739 174,1481 1456,739 174,0 Z M 1358,739 L 309,1346 659,739 1358,739 Z"/>
  </g>
  <g id="bullet-char-template-10132" transform="scale(0.00048828125,-0.00048828125)">
   <path d="M 2015,739 L 1276,0 717,0 1260,543 174,543 174,936 1260,936 717,1481 1274,1481 2015,739 Z"/>
  </g>
  <g id="bullet-char-template-10007" transform="scale(0.00048828125,-0.00048828125)">
   <path d="M 0,-2 C -7,14 -16,27 -25,37 L 356,567 C 262,823 215,952 215,954 215,979 228,992 255,992 264,992 276,990 289,987 310,991 331,999 354,1012 L 381,999 492,748 772,1049 836,1024 860,1049 C 881,1039 901,1025 922,1006 886,937 835,863 770,784 769,783 710,716 594,584 L 774,223 C 774,196 753,168 711,139 L 727,119 C 717,90 699,76 672,76 641,76 570,178 457,381 L 164,-76 C 142,-110 111,-127 72,-127 30,-127 9,-110 8,-76 1,-67 -2,-52 -2,-32 -2,-23 -1,-13 0,-2 Z"/>
  </g>
  <g id="bullet-char-template-10004" transform="scale(0.00048828125,-0.00048828125)">
   <path d="M 285,-33 C 182,-33 111,30 74,156 52,228 41,333 41,471 41,549 55,616 82,672 116,743 169,778 240,778 293,778 328,747 346,684 L 369,508 C 377,444 397,411 428,410 L 1163,1116 C 1174,1127 1196,1133 1229,1133 1271,1133 1292,1118 1292,1087 L 1292,965 C 1292,929 1282,901 1262,881 L 442,47 C 390,-6 338,-33 285,-33 Z"/>
  </g>
  <g id="bullet-char-template-9679" transform="scale(0.00048828125,-0.00048828125)">
   <path d="M 813,0 C 632,0 489,54 383,161 276,268 223,411 223,592 223,773 276,916 383,1023 489,1130 632,1184 813,1184 992,1184 1136,1130 1245,1023 1353,916 1407,772 1407,592 1407,412 1353,268 1245,161 1136,54 992,0 813,0 Z"/>
  </g>
  <g id="bullet-char-template-8226" transform="scale(0.00048828125,-0.00048828125)">
   <path d="M 346,457 C 273,457 209,483 155,535 101,586 74,649 74,723 74,796 101,859 155,911 209,963 273,989 346,989 419,989 480,963 531,910 582,859 608,796 608,723 608,648 583,586 532,535 482,483 420,457 346,457 Z"/>
  </g>
  <g id="bullet-char-template-8211" transform="scale(0.00048828125,-0.00048828125)">
   <path d="M -4,459 L 1135,459 1135,606 -4,606 -4,459 Z"/>
  </g>
  <g id="bullet-char-template-61548" transform="scale(0.00048828125,-0.00048828125)">
   <path d="M 173,740 C 173,903 231,1043 346,1159 462,1274 601,1332 765,1332 928,1332 1067,1274 1183,1159 1299,1043 1357,903 1357,740 1357,577 1299,437 1183,322 1067,206 928,148 765,148 601,148 462,206 346,322 231,437 173,577 173,740 Z"/>
  </g>
 </defs>
 <g>
  <g id="id2" class="Master_Slide">
   <g id="bg-id2" class="Background"/>
   <g id="bo-id2" class="BackgroundObjects"/>
  </g>
 </g>
 <g class="SlideGroup">
  <g>
   <g id="container-id1">
    <g id="id1" class="Slide" clip-path="url(#presentation_clip_path)">
     <g class="Page">
      <g class="com.sun.star.drawing.ClosedBezierShape">
       <g id="id3">
        <rect class="BoundingBox" stroke="none" fill="none" x="540" y="646" width="9065" height="2709"/>
        <path fill="rgb(249,189,91)" stroke="none" d="M 610,3348 C 603,3352 594,3354 586,3353 578,3353 569,3351 562,3346 555,3342 549,3335 545,3328 542,3320 540,3312 540,3304 540,3295 543,3287 547,3280 552,3273 558,3267 566,3263 L 1123,2972 1140,2963 1159,2969 1433,3050 2215,2818 2233,2812 2250,2820 2882,3126 3664,2917 3675,2914 3687,2917 4021,2995 4575,3130 4891,2778 4903,2765 4921,2763 5633,2671 5653,2668 5669,2681 6200,3103 C 6201,3103 6201,3103 6202,3103 6212,3103 6221,3101 6231,3098 6240,3095 6250,3091 6259,3085 6280,3072 6299,3051 6317,3026 6359,2968 6394,2885 6424,2786 6489,2577 6533,2299 6572,2020 6612,1738 6647,1456 6691,1245 6702,1191 6714,1141 6726,1098 6739,1052 6753,1013 6768,980 6785,943 6804,915 6824,895 6836,882 6849,873 6863,867 6871,863 6878,860 6886,858 6895,857 6903,856 6911,856 6912,856 6912,856 6912,856 L 6913,856 C 6928,856 6943,859 6957,864 6971,869 6983,877 6995,887 7005,896 7015,907 7024,919 7032,931 7040,944 7047,958 7059,985 7070,1016 7079,1053 7088,1087 7095,1126 7101,1168 7125,1332 7132,1550 7144,1767 7155,1979 7171,2192 7212,2351 7222,2389 7233,2424 7246,2455 7258,2483 7272,2508 7288,2529 7295,2538 7303,2547 7311,2554 7319,2561 7327,2567 7335,2571 7343,2576 7352,2579 7361,2581 7370,2583 7379,2585 7390,2585 7391,2585 7393,2585 7394,2585 7403,2584 7411,2583 7418,2580 7424,2578 7430,2575 7435,2571 7441,2566 7446,2560 7450,2554 7456,2546 7461,2537 7465,2526 7475,2502 7482,2473 7488,2440 7494,2404 7498,2364 7501,2320 7515,2135 7516,1890 7575,1646 7606,1521 7651,1396 7721,1279 7792,1161 7887,1050 8016,956 8144,863 8305,785 8509,730 8709,677 8952,646 9246,646 9345,646 9449,649 9559,657 9568,657 9576,660 9583,665 9590,669 9595,676 9599,683 9603,691 9604,699 9604,708 9603,716 9601,724 9596,731 9591,738 9585,744 9577,748 9570,751 9561,753 9553,752 9445,745 9343,742 9246,742 8962,742 8727,771 8533,823 8343,874 8192,946 8073,1033 7955,1120 7868,1220 7804,1328 7739,1437 7697,1553 7668,1669 7610,1907 7610,2146 7597,2327 7593,2374 7589,2417 7582,2456 7575,2497 7566,2533 7554,2563 7547,2580 7539,2595 7530,2608 7519,2623 7508,2635 7495,2646 7482,2656 7467,2665 7450,2671 7434,2676 7417,2680 7398,2681 7395,2681 7392,2681 7390,2681 7371,2681 7354,2678 7337,2674 7320,2670 7304,2664 7289,2655 7274,2647 7260,2638 7247,2626 7235,2615 7223,2602 7212,2588 7192,2561 7174,2529 7158,2492 7143,2457 7130,2418 7119,2375 7076,2211 7060,1991 7048,1772 7037,1558 7030,1343 7006,1182 7001,1143 6994,1108 6986,1076 6979,1047 6970,1021 6960,1000 6956,990 6951,982 6946,975 6942,969 6937,964 6933,960 6929,957 6926,955 6922,954 6919,952 6915,952 6911,952 6910,952 6909,952 6908,952 6907,952 6906,953 6904,953 6900,955 6896,959 6892,963 6879,976 6867,996 6856,1020 6842,1049 6830,1084 6818,1124 6806,1166 6795,1213 6785,1264 6741,1474 6707,1754 6667,2034 6627,2317 6582,2601 6516,2814 6482,2925 6442,3017 6395,3082 6369,3118 6341,3147 6311,3166 6294,3177 6277,3185 6259,3190 6240,3196 6221,3199 6202,3199 6193,3199 6185,3198 6176,3197 L 6163,3196 6152,3187 5625,2769 4951,2856 4627,3216 4607,3237 4580,3230 3999,3088 3677,3013 2889,3223 2872,3227 2856,3220 2225,2915 1447,3147 1433,3151 1419,3147 1150,3066 610,3348 Z"/>
       </g>
      </g>
      <g class="com.sun.star.drawing.ClosedBezierShape">
       <g id="id4">
        <rect class="BoundingBox" stroke="none" fill="none" x="8291" y="1115" width="2082" height="1460"/>
        <path fill="rgb(71,130,186)" stroke="none" d="M 8291,2574 L 8291,1115 9274,1115 9274,1287 8484,1287 8484,1739 9168,1739 9168,1911 8484,1911 8484,2574 8291,2574 Z M 9384,2573 L 9770,2024 9413,1517 9637,1517 9799,1765 C 9829,1812 9854,1851 9872,1883 9901,1839 9928,1800 9953,1767 L 10131,1517 10344,1517 9980,2014 10372,2573 10152,2573 9936,2245 9878,2156 9601,2573 9384,2573 Z"/>
       </g>
      </g>
      <g class="com.sun.star.drawing.ClosedBezierShape">
       <g id="id5">
        <rect class="BoundingBox" stroke="none" fill="none" x="186" y="306" width="10371" height="3601"/>
        <path fill="rgb(0,0,0)" stroke="none" d="M 1728,1183 C 1645,1183 1572,1197 1508,1225 1445,1252 1391,1291 1348,1342 1305,1393 1273,1455 1251,1526 1228,1598 1217,1678 1217,1765 1217,1853 1229,1933 1253,2006 1277,2078 1311,2141 1355,2193 1400,2246 1454,2286 1519,2315 1583,2344 1656,2359 1736,2359 1793,2359 1844,2351 1891,2337 1937,2322 1979,2301 2017,2274 2055,2247 2088,2215 2118,2178 2147,2141 2174,2101 2196,2056 L 2358,2136 C 2331,2191 2299,2242 2260,2288 2222,2335 2177,2376 2124,2410 2072,2445 2014,2472 1948,2492 1882,2511 1808,2521 1727,2521 1609,2521 1506,2502 1417,2465 1329,2427 1255,2375 1195,2308 1136,2240 1091,2161 1061,2068 1032,1976 1017,1875 1017,1765 1017,1652 1033,1549 1064,1457 1095,1366 1141,1288 1201,1223 1262,1159 1336,1109 1424,1074 1512,1039 1613,1022 1726,1022 1881,1022 2011,1052 2115,1113 2219,1174 2295,1264 2344,1383 L 2157,1445 C 2143,1410 2125,1377 2101,1346 2078,1315 2049,1287 2013,1263 1978,1239 1937,1219 1890,1205 1843,1190 1789,1183 1728,1183 Z M 2765,1573 C 2786,1535 2808,1503 2832,1477 2856,1450 2883,1428 2912,1411 2941,1394 2972,1381 3007,1373 3041,1365 3080,1361 3123,1361 3194,1361 3253,1371 3299,1390 3345,1410 3381,1437 3408,1471 3434,1506 3452,1548 3462,1596 3472,1644 3477,1697 3477,1755 L 3477,2501 3290,2501 3290,1791 C 3290,1744 3287,1702 3281,1666 3276,1630 3264,1601 3248,1577 3231,1553 3208,1535 3178,1523 3147,1511 3108,1505 3060,1505 3016,1505 2976,1513 2940,1529 2905,1545 2874,1567 2849,1596 2824,1625 2805,1660 2791,1701 2777,1743 2770,1789 2770,1841 L 2770,2501 2584,2501 2584,967 2770,967 2770,1365 C 2770,1388 2770,1411 2769,1434 2769,1456 2768,1477 2767,1497 2766,1516 2765,1532 2764,1546 2763,1559 2763,1568 2762,1573 L 2765,1573 Z M 4042,2521 C 3930,2521 3846,2491 3789,2432 3733,2373 3704,2292 3704,2188 3704,2114 3718,2054 3746,2007 3774,1960 3811,1923 3856,1896 3901,1869 3952,1850 4010,1840 4068,1830 4127,1824 4187,1822 L 4438,1818 4438,1757 C 4438,1711 4433,1672 4424,1639 4414,1607 4399,1581 4379,1561 4359,1541 4334,1526 4304,1517 4274,1508 4239,1503 4198,1503 4163,1503 4130,1506 4101,1511 4072,1516 4047,1525 4026,1539 4004,1552 3987,1570 3974,1593 3961,1617 3952,1646 3948,1681 L 3754,1663 C 3761,1619 3774,1579 3793,1542 3813,1505 3840,1473 3875,1446 3911,1419 3955,1398 4009,1384 4062,1369 4127,1361 4203,1361 4343,1361 4449,1394 4520,1458 4591,1523 4626,1616 4626,1738 L 4626,2219 C 4626,2275 4634,2316 4648,2344 4663,2372 4690,2386 4731,2386 4741,2386 4751,2385 4762,2384 4772,2383 4782,2381 4792,2379 L 4792,2494 C 4768,2500 4745,2504 4722,2507 4699,2510 4674,2511 4648,2511 4613,2511 4583,2506 4558,2497 4532,2488 4512,2474 4496,2455 4480,2436 4468,2412 4460,2384 4452,2356 4447,2324 4444,2286 L 4438,2286 C 4418,2322 4396,2355 4373,2384 4349,2412 4321,2437 4289,2457 4258,2478 4222,2493 4181,2504 4141,2515 4095,2521 4042,2521 Z M 4085,2381 C 4144,2381 4196,2371 4240,2349 4285,2327 4322,2299 4351,2266 4380,2232 4402,2195 4417,2155 4431,2115 4438,2077 4438,2040 L 4438,1948 4235,1953 C 4189,1953 4146,1957 4105,1962 4064,1968 4028,1980 3997,1997 3966,2014 3941,2038 3923,2069 3905,2100 3896,2141 3896,2191 3896,2252 3912,2299 3945,2332 3977,2365 4024,2381 4085,2381 Z M 4938,2500 L 4938,1642 C 4938,1619 4938,1595 4938,1570 4937,1546 4937,1522 4936,1500 4935,1477 4935,1455 4934,1435 4933,1415 4933,1398 4932,1382 L 5108,1382 C 5108,1398 5109,1416 5110,1436 5111,1456 5112,1477 5113,1498 5114,1520 5115,1540 5115,1560 5116,1580 5116,1596 5116,1610 L 5120,1610 C 5133,1567 5147,1530 5162,1499 5177,1468 5194,1442 5214,1421 5234,1401 5258,1386 5285,1376 5313,1366 5346,1361 5386,1361 5401,1361 5415,1362 5429,1365 5443,1367 5454,1369 5461,1371 L 5461,1542 C 5449,1538 5434,1536 5418,1534 5401,1532 5383,1532 5362,1532 5319,1532 5283,1541 5253,1560 5223,1580 5198,1606 5180,1641 5161,1675 5147,1715 5138,1763 5129,1810 5124,1861 5124,1917 L 5124,2500 4938,2500 Z M 6071,2492 C 6043,2500 6014,2506 5985,2510 5955,2515 5922,2517 5883,2517 5734,2517 5660,2433 5660,2264 L 5660,1517 5530,1517 5530,1382 5667,1382 5722,1132 5846,1132 5846,1382 6052,1382 6052,1517 5846,1517 5846,2223 C 5846,2277 5854,2315 5872,2337 5890,2358 5920,2369 5964,2369 5981,2369 5999,2368 6016,2365 6033,2362 6051,2359 6071,2355 L 6071,2492 Z M 556,3636 L 556,3635 555,3635 554,3635 553,3635 C 552,3635 552,3635 552,3635 L 551,3635 C 550,3635 550,3635 550,3635 L 549,3635 C 548,3635 548,3635 548,3635 L 547,3635 C 546,3635 546,3635 546,3635 L 545,3635 544,3635 544,3634 543,3634 542,3634 541,3634 540,3634 539,3634 C 539,3634 539,3633 538,3633 L 537,3633 C 536,3633 536,3633 536,3633 L 535,3633 535,3632 C 534,3632 534,3632 534,3632 L 533,3632 C 532,3632 532,3632 532,3632 L 531,3631 530,3631 C 529,3631 529,3631 529,3631 529,3630 528,3630 528,3630 527,3630 527,3630 527,3630 L 526,3630 C 526,3629 526,3629 526,3629 L 525,3629 C 524,3629 524,3629 524,3629 524,3628 524,3628 523,3628 L 522,3628 522,3627 C 521,3627 521,3627 521,3627 520,3627 520,3627 520,3627 520,3627 520,3626 519,3626 L 518,3626 518,3625 517,3625 C 516,3625 516,3625 516,3625 L 516,3624 515,3624 514,3624 C 514,3623 514,3623 514,3623 L 513,3623 513,3622 512,3622 511,3622 C 511,3621 511,3621 511,3621 L 510,3621 510,3620 509,3620 508,3619 507,3619 507,3618 506,3618 506,3617 C 505,3617 505,3617 505,3617 505,3616 505,3616 505,3616 504,3616 504,3616 504,3616 504,3615 503,3615 503,3615 L 502,3614 C 501,3613 501,3613 501,3613 501,3613 500,3613 500,3612 499,3611 499,3611 499,3611 499,3611 499,3610 498,3610 497,3609 497,3609 497,3609 497,3608 497,3608 497,3608 496,3608 496,3608 496,3608 L 496,3607 495,3607 495,3606 494,3606 494,3605 493,3605 C 493,3604 493,3604 493,3604 493,3603 492,3603 492,3603 492,3602 492,3602 492,3602 L 491,3602 C 491,3601 491,3601 491,3601 490,3600 490,3600 490,3600 490,3599 490,3599 490,3599 L 489,3599 489,3598 489,3597 C 488,3597 488,3597 488,3597 L 488,3596 487,3596 487,3595 C 487,3594 487,3594 487,3594 L 486,3594 C 486,3593 486,3593 486,3593 L 486,3592 C 485,3592 485,3592 485,3592 L 485,3591 C 485,3590 485,3590 485,3590 L 484,3590 484,3589 484,3588 483,3588 483,3587 C 483,3586 483,3586 483,3586 L 483,3585 C 482,3585 482,3585 482,3585 482,3584 482,3584 482,3584 L 482,3583 C 481,3583 481,3582 481,3582 481,3581 481,3581 481,3581 L 481,3580 480,3580 C 480,3579 480,3579 480,3579 L 480,3578 480,3577 480,3576 479,3576 479,3575 C 479,3574 479,3574 479,3574 L 479,3573 C 479,3572 479,3572 479,3572 L 478,3572 478,3571 C 478,3570 478,3570 478,3570 L 478,3569 C 478,3568 478,3568 478,3568 L 478,3567 C 478,3566 478,3566 478,3566 L 477,3566 477,3565 477,3564 477,3563 477,3562 477,3561 477,3560 C 477,3559 477,3559 477,3559 L 477,3558 C 477,3557 477,3557 477,3557 L 456,1007 186,1009 530,306 886,1003 615,1005 635,3477 9856,3477 9856,3206 10556,3556 9856,3906 9856,3636 556,3636 Z"/>
       </g>
      </g>
     </g>
    </g>
   </g>
  </g>
 </g>
</svg>