<?xml version="1.0" encoding="UTF-8"?>
<!DOCTYPE svg PUBLIC "-//W3C//DTD SVG 1.1//EN" "http://www.w3.org/Graphics/SVG/1.1/DTD/svg11.dtd">
<svg version="1.2" width="32.01mm" height="32.01mm" viewBox="0 0 3201 3201" preserveAspectRatio="xMidYMid" fill-rule="evenodd" stroke-width="28.222" stroke-linejoin="round" xmlns="http://www.w3.org/2000/svg" xmlns:ooo="http://xml.openoffice.org/svg/export" xmlns:xlink="http://www.w3.org/1999/xlink" xmlns:presentation="http://sun.com/xmlns/staroffice/presentation" xmlns:smil="http://www.w3.org/2001/SMIL20/" xmlns:anim="urn:oasis:names:tc:opendocument:xmlns:animation:1.0" xml:space="preserve">
 <defs class="ClipPathGroup">
  <clipPath id="presentation_clip_path" clipPathUnits="userSpaceOnUse">
   <rect x="0" y="0" width="3201" height="3201"/>
  </clipPath>
  <clipPath id="presentation_clip_path_shrink" clipPathUnits="userSpaceOnUse">
   <rect x="3" y="3" width="3195" height="3195"/>
  </clipPath>
 </defs>
 <defs class="TextShapeIndex">
  <g ooo:slide="id1" ooo:id-list="id3 id4"/>
 </defs>
 <defs class="EmbeddedBulletChars">
  <g id="bullet-char-template-57356" transform="scale(0.00048828125,-0.00048828125)">
   <path d="M 580,1141 L 1163,571 580,0 -4,571 580,1141 Z"/>
  </g>
  <g id="bullet-char-template-57354" transform="scale(0.00048828125,-0.00048828125)">
   <path d="M 8,1128 L 1137,1128 1137,0 8,0 8,1128 Z"/>
  </g>
  <g id="bullet-char-template-10146" transform="scale(0.00048828125,-0.00048828125)">
   <path d="M 174,0 L 602,739 174,1481 1456,739 174,0 Z M 1358,739 L 309,1346 659,739 1358,739 Z"/>
  </g>
  <g id="bullet-char-template-10132" transform="scale(0.00048828125,-0.00048828125)">
   <path d="M 2015,739 L 1276,0 717,0 1260,543 174,543 174,936 1260,936 717,1481 1274,1481 2015,739 Z"/>
  </g>
  <g id="bullet-char-template-10007" transform="scale(0.00048828125,-0.00048828125)">
   <path d="M 0,-2 C -7,14 -16,27 -25,37 L 356,567 C 262,823 215,952 215,954 215,979 228,992 255,992 264,992 276,990 289,987 310,991 331,999 354,1012 L 381,999 492,748 772,1049 836,1024 860,1049 C 881,1039 901,1025 922,1006 886,937 835,863 770,784 769,783 710,716 594,584 L 774,223 C 774,196 753,168 711,139 L 727,119 C 717,90 699,76 672,76 641,76 570,178 457,381 L 164,-76 C 142,-110 111,-127 72,-127 30,-127 9,-110 8,-76 1,-67 -2,-52 -2,-32 -2,-23 -1,-13 0,-2 Z"/>
  </g>
  <g id="bullet-char-template-10004" transform="scale(0.00048828125,-0.00048828125)">
   <path d="M 285,-33 C 182,-33 111,30 74,156 52,228 41,333 41,471 41,549 55,616 82,672 116,743 169,778 240,778 293,778 328,747 346,684 L 369,508 C 377,444 397,411 428,410 L 1163,1116 C 1174,1127 1196,1133 1229,1133 1271,1133 1292,1118 1292,1087 L 1292,965 C 1292,929 1282,901 1262,881 L 442,47 C 390,-6 338,-33 285,-33 Z"/>
  </g>
  <g id="bullet-char-template-9679" transform="scale(0.00048828125,-0.00048828125)">
   <path d="M 813,0 C 632,0 489,54 383,161 276,268 223,411 223,592 223,773 276,916 383,1023 489,1130 632,1184 813,1184 992,1184 1136,1130 1245,1023 1353,916 1407,772 1407,592 1407,412 1353,268 1245,161 1136,54 992,0 813,0 Z"/>
  </g>
  <g id="bullet-char-template-8226" transform="scale(0.00048828125,-0.00048828125)">
   <path d="M 346,457 C 273,457 209,483 155,535 101,586 74,649 74,723 74,796 101,859 155,911 209,963 273,989 346,989 419,989 480,963 531,910 582,859 608,796 608,723 608,648 583,586 532,535 482,483 420,457 346,457 Z"/>
  </g>
  <g id="bullet-char-template-8211" transform="scale(0.00048828125,-0.00048828125)">
   <path d="M -4,459 L 1135,459 1135,606 -4,606 -4,459 Z"/>
  </g>
  <g id="bullet-char-template-61548" transform="scale(0.00048828125,-0.00048828125)">
   <path d="M 173,740 C 173,903 231,1043 346,1159 462,1274 601,1332 765,1332 928,1332 1067,1274 1183,1159 1299,1043 1357,903 1357,740 1357,577 1299,437 1183,322 1067,206 928,148 765,148 601,148 462,206 346,322 231,437 173,577 173,740 Z"/>
  </g>
 </defs>
 <g>
  <g id="id2" class="Master_Slide">
   <g id="bg-id2" class="Background"/>
   <g id="bo-id2" class="BackgroundObjects"/>
  </g>
 </g>
 <g class="SlideGroup">
  <g>
   <g id="container-id1">
    <g id="id1" class="Slide" clip-path="url(#presentation_clip_path)">
     <g class="Page">
      <g class="com.sun.star.drawing.ClosedBezierShape">
       <g id="id3">
        <rect class="BoundingBox" stroke="none" fill="none" x="0" y="0" width="3201" height="3201"/>
        <path fill="rgb(237,28,36)" stroke="none" d="M 1061,194 C 1042,194 1024,199 1008,208 1000,213 992,218 986,225 L 225,986 C 218,992 213,1000 208,1008 199,1024 194,1042 194,1061 L 194,2137 C 194,2156 199,2174 208,2190 213,2198 218,2206 225,2212 L 986,2974 C 992,2981 1000,2986 1008,2991 1024,3000 1042,3005 1061,3005 L 2137,3005 C 2156,3005 2174,3000 2190,2991 2198,2986 2206,2981 2212,2974 L 2974,2212 C 2981,2206 2986,2198 2991,2190 3000,2174 3005,2156 3005,2137 L 3005,1061 C 3005,1042 3000,1024 2991,1008 2986,1000 2981,992 2974,986 L 2212,225 C 2206,218 2198,213 2190,208 2174,199 2156,194 2137,194 L 1061,194 Z M 1105,406 L 2093,406 2793,1105 2793,2093 2093,2793 1105,2793 406,2093 406,1105 1105,406 Z M 1598,2149 C 1635,2149 1667,2137 1692,2113 1717,2089 1730,2059 1730,2022 L 1730,927 C 1730,890 1717,860 1692,836 1666,811 1635,799 1598,799 1560,799 1528,811 1503,836 1477,860 1464,890 1464,927 1464,1022 1463,1164 1461,1355 1460,1545 1459,1686 1459,1781 1459,1808 1460,1849 1461,1902 1463,1955 1464,1995 1464,2022 1464,2059 1477,2089 1502,2113 1527,2137 1559,2149 1598,2149 Z M 1595,2524 C 1629,2524 1661,2512 1689,2487 1717,2462 1731,2432 1731,2397 1731,2363 1715,2325 1682,2285 1647,2241 1609,2219 1569,2219 1533,2219 1501,2231 1473,2255 1444,2279 1430,2309 1430,2345 1430,2380 1446,2418 1479,2458 1515,2502 1553,2524 1595,2524 Z M 937,0 L 2261,0 3199,937 3199,2261 2261,3199 937,3199 0,2261 0,937 937,0 Z"/>
       </g>
      </g>
      <g class="com.sun.star.drawing.ClosedBezierShape">
       <g id="id4">
        <rect class="BoundingBox" stroke="none" fill="none" x="194" y="194" width="2814" height="2814"/>
        <path fill="rgb(255,255,255)" stroke="none" d="M 1062,195 L 2138,195 C 2157,195 2175,200 2191,209 2199,214 2207,219 2213,226 L 2975,987 C 2982,993 2987,1001 2992,1009 3001,1025 3006,1043 3006,1062 L 3006,2138 C 3006,2157 3001,2175 2992,2191 2987,2199 2982,2207 2975,2213 L 2213,2975 C 2207,2982 2199,2987 2191,2992 2175,3001 2157,3006 2138,3006 L 1062,3006 C 1043,3006 1025,3001 1009,2992 1001,2987 993,2982 987,2975 L 226,2213 C 219,2207 214,2199 209,2191 200,2175 195,2157 195,2138 L 195,1062 C 195,1043 200,1025 209,1009 214,1001 219,993 226,987 L 987,226 C 993,219 1001,214 1009,209 1025,200 1043,195 1062,195 Z M 1106,407 L 407,1106 407,2094 1106,2794 2094,2794 2794,2094 2794,1106 2094,407 1106,407 Z M 1599,2150 C 1560,2150 1528,2138 1503,2114 1478,2090 1465,2060 1465,2023 1465,1996 1464,1956 1462,1903 1461,1850 1460,1809 1460,1782 1460,1687 1461,1546 1462,1356 1464,1165 1465,1023 1465,928 1465,891 1478,861 1504,837 1529,812 1561,800 1599,800 1636,800 1667,812 1693,837 1718,861 1731,891 1731,928 L 1731,2023 C 1731,2060 1718,2090 1693,2114 1668,2138 1636,2150 1599,2150 Z M 1596,2525 C 1554,2525 1516,2503 1480,2459 1447,2419 1431,2381 1431,2346 1431,2310 1445,2280 1474,2256 1502,2232 1534,2220 1570,2220 1610,2220 1648,2242 1683,2286 1716,2326 1732,2364 1732,2398 1732,2433 1718,2463 1690,2488 1662,2513 1630,2525 1596,2525 Z"/>
       </g>
      </g>
     </g>
    </g>
   </g>
  </g>
 </g>
</svg>