<?xml version="1.0" encoding="utf-8"?>
<!-- Generator: Adobe Illustrator 21.1.0, SVG Export Plug-In . SVG Version: 6.00 Build 0)  -->
<svg version="1.1" id="Ebene_1" xmlns="http://www.w3.org/2000/svg" xmlns:xlink="http://www.w3.org/1999/xlink" x="0px" y="0px"
	 viewBox="0 0 425.2 283.5" style="enable-background:new 0 0 425.2 283.5;" xml:space="preserve">
<style type="text/css">
	.st0{fill:#0C080C;}
	.st1{fill-rule:evenodd;clip-rule:evenodd;fill:#0C080C;}
	.st2{fill:#FDB342;}
</style>
<g>
	<path class="st0" d="M130.4,99.4H83.2v44H115c4.7,0,8.5,3.8,8.5,8.6c0,4.8-3.8,8.6-8.5,8.6H83.2v52.7c0,4.9-3.8,8.6-8.4,8.6
		c-4.6,0-8.4-3.8-8.4-8.6V82.1h64c4.6,0,8.4,3.8,8.4,8.6C138.8,95.4,135,99.4,130.4,99.4L130.4,99.4z"/>
	<path class="st1" d="M358.3,211.1l-17.6-46.4c13.5-5.1,17.1-18.9,17.1-26.7v-27.1c0-22.7-18.5-28.4-27.6-28.4h-35.8
		c-4.4,0-7.8,3.6-7.8,8v123.6c0,4.4,3.3,8,7.8,8c4.2,0,7.8-3.6,7.8-8v-47.4h22.5l18.8,50.1c3.3,8.8,15,5.3,15.3-2.3v-0.6
		C358.8,213,358.6,212.1,358.3,211.1L358.3,211.1z M330.2,150.5h-28v-52h28c1.3,0,12,0.4,12,12.4v27.1
		C342.2,139.3,341.8,150.5,330.2,150.5L330.2,150.5z"/>
	<path class="st0" d="M265.8,90.7c0-4.9-3.6-8.6-8-8.6c-4.4,0-7.8,3.8-7.8,8.6l0,122.7c0,4.9,3.6,8.6,8,8.6c4.4,0,7.8-3.8,7.8-8.6
		L265.8,90.7L265.8,90.7z"/>
	<path class="st0" d="M233.2,211L203.3,88.5c-1-3.6-4.1-6.3-7.7-6.5c-1-0.1-2-0.1-3,0.2c-4.7,1.2-6.7,6.1-5.5,11.3l18.2,74.9l-42,0
		c-5.3,0-9.5,3.9-9.5,8.8c0,4.9,4.1,8.6,9.5,8.6l46.3,0c2.2,9.3,5.2,22.3,7.2,29.9c1.3,4.9,5.4,7.2,10.2,6.1
		C231.5,220.5,234.3,215.6,233.2,211L233.2,211z"/>
	<circle class="st2" cx="257.9" cy="47.1" r="19.8"/>
	<g>
		<path class="st2" d="M205.3,260.4C205.3,260.4,205.3,260.4,205.3,260.4C205.2,260.5,205.2,260.5,205.3,260.4L205.3,260.4z"/>
		<path class="st2" d="M230.3,37.5c-24.4,4.2-47.5,16.2-65.4,34c-23.3,23.1-36.1,53.6-36.1,85.7c0,32.1,12.4,62.3,34.9,85.2
			c4.3,4.3,8.8,8.3,13.5,11.8c4.8,3.6,9.9,6.9,15.2,9.7c2,1.1,4.4,1.4,6.7,0.7c2.2-0.7,4-2.2,5.1-4.2c0.7-1.3,1.1-2.8,1.1-4.2
			c0-3.1-1.6-6.1-4.5-7.7c-4.7-2.6-9-5.4-13-8.4c-4.1-3.1-8-6.5-11.6-10.1c-19.3-19.5-29.9-45.4-29.9-72.9c0-27.4,11-53.5,30.8-73.3
			c14.5-14.4,32.9-24.3,52.4-28.4c-0.7-2.6-1.1-5.3-1.1-8.1C228.5,43.9,229.2,40.6,230.3,37.5z"/>
		<path class="st2" d="M328.7,62.9C328.7,62.9,328.7,62.9,328.7,62.9C328.7,63,328.7,63,328.7,62.9L328.7,62.9z"/>
		<path class="st2" d="M331.3,69.2c-0.1-2.4-1.1-4.7-3-6.2c-10.7-9.5-22.3-16.2-35.5-20.8c-2.1-0.7-4.2-1.4-6.4-2
			c0.6,2.3,0.9,4.7,0.9,7.2c0,3.8-0.7,7.4-2.1,10.8c0.6,0.2,1.3,0.4,1.9,0.6c10.9,3.7,20.6,9.4,29.6,17.4c1.8,1.6,4,2.3,6.4,2.2
			c2.3-0.1,4.5-1.2,6.1-3c1.3-1.4,2.1-3.4,2.2-5.4l0-0.1L331.3,69.2L331.3,69.2z"/>
	</g>
</g>
</svg>
