<?xml version="1.0" encoding="UTF-8"?>
<!-- Generator: Adobe Illustrator 21.1.0, SVG Export Plug-In . SVG Version: 6.00 Build 0)  -->
<svg version="1.1" id="Ebene_1" xmlns="http://www.w3.org/2000/svg" xmlns:xlink="http://www.w3.org/1999/xlink" x="0px" y="0px" viewBox="0 0 314 115" style="enable-background:new 0 0 314 115;" xml:space="preserve">
<style type="text/css">
	.st0{fill:#FEB341;}
</style>
<path d="M17.8,55.9c0-1.4,0.7-2.2,3.2-2.2h79.9c0.7,0.1,1.8,0.7,2,1.5c0,4.1,0,8.2,0.1,12.3H72.6h-1.4c0-2.3,0.7-7-1.6-7H50.1  c-0.7,0.3-1.4,0.9-1.7,1.6c0,10.9,0,22.9,0,32.8c0.8,1.9,2.8,1.4,4.6,1.5h16.1c0.6-0.1,1.3-0.7,1.4-1.4l-0.1-11.7  c-0.8-3-4-1.7-6.5-2H60v-5.9h43v24.3c-0.4,1-1,2.1-2,2.7l-1.9,0.5H19.4c-0.9-0.1-1.3-1.2-1.5-2l-0.1-0.9L17.8,55.9z"/>
<path d="M127.6,89.1h32.5c0,2.7-0.6,6.9,1.6,6.9c6.1,0.1,12.5,0,18.5,0l1.6-1.9V83.3c0-0.7-0.2-1.6-1.7-1.6h-50.2  c-1.8,0-2.3-2.1-2.3-3.7V56.4c0-2.7,3.8-2.5,6.1-2.5h77.6c0.9,0.3,2.1,0.4,2.2,1.6v11.4H182c0-2.1,0.6-6.3-1.3-6.3  c-6.5,0-13.5,0-20.2,0l-0.8,0.8v13.1c0,2.2,3.7,1.6,7,1.6h43.8c2.1,0,2.9,0.3,2.9,1.7c0,7.6,0,15.2,0,22c0,1.3-0.4,2.9-1.9,3.2h-6.2  h-75c-1.3-0.2-2.9-1.3-2.9-3.1C127.5,96.4,127.6,93.2,127.6,89.1z"/>
<path d="M233.6,96c3.6-0.2,8.5,0.9,10.2-2.2l0.2-1.9V64.5c-0.9-3.6-6.6-2.9-10.3-2.9v-7.7h31.8v49.6h-31.9  C233.6,101,233.6,98.5,233.6,96z"/>
<path d="M302.5,96c-3.6-0.2-8.5,0.9-10.2-2.2l-0.2-1.9V64.5c0.9-3.6,6.6-2.9,10.3-2.9v-7.7h-31.8v49.6h31.9  C302.5,101,302.5,98.5,302.5,96z"/>
<g>
	<circle class="st0" cx="268" cy="29.8" r="16.7"/>
	<path class="st0" d="M268,29.8"/>
</g>
<g>
	<rect x="265.5" y="53.8" class="st0" width="5.1" height="49.6"/>
	<path class="st0" d="M268,78.6"/>
</g>
</svg>