<?xml version="1.0" encoding="UTF-8"?>
<!DOCTYPE svg PUBLIC "-//W3C//DTD SVG 1.1//EN" "http://www.w3.org/Graphics/SVG/1.1/DTD/svg11.dtd">
<svg version="1.2" width="32.01mm" height="32.01mm" viewBox="0 0 3201 3201" preserveAspectRatio="xMidYMid" fill-rule="evenodd" stroke-width="28.222" stroke-linejoin="round" xmlns="http://www.w3.org/2000/svg" xmlns:ooo="http://xml.openoffice.org/svg/export" xmlns:xlink="http://www.w3.org/1999/xlink" xmlns:presentation="http://sun.com/xmlns/staroffice/presentation" xmlns:smil="http://www.w3.org/2001/SMIL20/" xmlns:anim="urn:oasis:names:tc:opendocument:xmlns:animation:1.0" xml:space="preserve">
 <defs class="ClipPathGroup">
  <clipPath id="presentation_clip_path" clipPathUnits="userSpaceOnUse">
   <rect x="0" y="0" width="3201" height="3201"/>
  </clipPath>
  <clipPath id="presentation_clip_path_shrink" clipPathUnits="userSpaceOnUse">
   <rect x="3" y="3" width="3195" height="3195"/>
  </clipPath>
 </defs>
 <defs class="TextShapeIndex">
  <g ooo:slide="id1" ooo:id-list="id3 id4"/>
 </defs>
 <defs class="EmbeddedBulletChars">
  <g id="bullet-char-template-57356" transform="scale(0.00048828125,-0.00048828125)">
   <path d="M 580,1141 L 1163,571 580,0 -4,571 580,1141 Z"/>
  </g>
  <g id="bullet-char-template-57354" transform="scale(0.00048828125,-0.00048828125)">
   <path d="M 8,1128 L 1137,1128 1137,0 8,0 8,1128 Z"/>
  </g>
  <g id="bullet-char-template-10146" transform="scale(0.00048828125,-0.00048828125)">
   <path d="M 174,0 L 602,739 174,1481 1456,739 174,0 Z M 1358,739 L 309,1346 659,739 1358,739 Z"/>
  </g>
  <g id="bullet-char-template-10132" transform="scale(0.00048828125,-0.00048828125)">
   <path d="M 2015,739 L 1276,0 717,0 1260,543 174,543 174,936 1260,936 717,1481 1274,1481 2015,739 Z"/>
  </g>
  <g id="bullet-char-template-10007" transform="scale(0.00048828125,-0.00048828125)">
   <path d="M 0,-2 C -7,14 -16,27 -25,37 L 356,567 C 262,823 215,952 215,954 215,979 228,992 255,992 264,992 276,990 289,987 310,991 331,999 354,1012 L 381,999 492,748 772,1049 836,1024 860,1049 C 881,1039 901,1025 922,1006 886,937 835,863 770,784 769,783 710,716 594,584 L 774,223 C 774,196 753,168 711,139 L 727,119 C 717,90 699,76 672,76 641,76 570,178 457,381 L 164,-76 C 142,-110 111,-127 72,-127 30,-127 9,-110 8,-76 1,-67 -2,-52 -2,-32 -2,-23 -1,-13 0,-2 Z"/>
  </g>
  <g id="bullet-char-template-10004" transform="scale(0.00048828125,-0.00048828125)">
   <path d="M 285,-33 C 182,-33 111,30 74,156 52,228 41,333 41,471 41,549 55,616 82,672 116,743 169,778 240,778 293,778 328,747 346,684 L 369,508 C 377,444 397,411 428,410 L 1163,1116 C 1174,1127 1196,1133 1229,1133 1271,1133 1292,1118 1292,1087 L 1292,965 C 1292,929 1282,901 1262,881 L 442,47 C 390,-6 338,-33 285,-33 Z"/>
  </g>
  <g id="bullet-char-template-9679" transform="scale(0.00048828125,-0.00048828125)">
   <path d="M 813,0 C 632,0 489,54 383,161 276,268 223,411 223,592 223,773 276,916 383,1023 489,1130 632,1184 813,1184 992,1184 1136,1130 1245,1023 1353,916 1407,772 1407,592 1407,412 1353,268 1245,161 1136,54 992,0 813,0 Z"/>
  </g>
  <g id="bullet-char-template-8226" transform="scale(0.00048828125,-0.00048828125)">
   <path d="M 346,457 C 273,457 209,483 155,535 101,586 74,649 74,723 74,796 101,859 155,911 209,963 273,989 346,989 419,989 480,963 531,910 582,859 608,796 608,723 608,648 583,586 532,535 482,483 420,457 346,457 Z"/>
  </g>
  <g id="bullet-char-template-8211" transform="scale(0.00048828125,-0.00048828125)">
   <path d="M -4,459 L 1135,459 1135,606 -4,606 -4,459 Z"/>
  </g>
  <g id="bullet-char-template-61548" transform="scale(0.00048828125,-0.00048828125)">
   <path d="M 173,740 C 173,903 231,1043 346,1159 462,1274 601,1332 765,1332 928,1332 1067,1274 1183,1159 1299,1043 1357,903 1357,740 1357,577 1299,437 1183,322 1067,206 928,148 765,148 601,148 462,206 346,322 231,437 173,577 173,740 Z"/>
  </g>
 </defs>
 <g>
  <g id="id2" class="Master_Slide">
   <g id="bg-id2" class="Background"/>
   <g id="bo-id2" class="BackgroundObjects"/>
  </g>
 </g>
 <g class="SlideGroup">
  <g>
   <g id="container-id1">
    <g id="id1" class="Slide" clip-path="url(#presentation_clip_path)">
     <g class="Page">
      <g class="com.sun.star.drawing.ClosedBezierShape">
       <g id="id3">
        <rect class="BoundingBox" stroke="none" fill="none" x="0" y="0" width="3200" height="3200"/>
        <path fill="rgb(0,0,205)" stroke="none" d="M 1643,1216 C 1688,1216 1725,1201 1757,1171 1789,1142 1806,1106 1806,1063 1806,1020 1789,984 1757,954 1725,925 1688,910 1643,910 1600,910 1562,925 1530,954 1497,984 1481,1020 1481,1063 1481,1106 1497,1142 1530,1171 1562,1201 1600,1216 1643,1216 Z M 1731,1972 C 1731,1911 1735,1834 1742,1741 1748,1649 1752,1573 1752,1512 1752,1472 1738,1440 1712,1414 1685,1388 1651,1375 1609,1375 1568,1375 1535,1388 1508,1414 1481,1440 1468,1472 1468,1512 1468,1573 1464,1649 1457,1741 1451,1834 1447,1911 1447,1972 1447,2011 1448,2074 1450,2161 1453,2248 1454,2311 1454,2350 1454,2390 1468,2423 1495,2449 1522,2474 1556,2487 1597,2487 1637,2487 1671,2474 1698,2449 1725,2423 1738,2390 1738,2350 1738,2311 1737,2248 1734,2161 1732,2074 1731,2011 1731,1972 Z M 1600,194 C 809,194 194,809 194,1600 194,2390 809,3004 1600,3004 2390,3004 3004,2390 3004,1600 3004,809 2389,194 1600,194 Z M 1600,406 C 2281,406 2792,917 2792,1600 2792,2282 2282,2792 1600,2792 917,2792 406,2282 406,1600 406,917 917,406 1600,406 Z M 1600,0 C 2505,0 3198,693 3198,1600 3198,2506 2506,3198 1600,3198 693,3198 0,2506 0,1600 0,693 693,0 1600,0 Z"/>
       </g>
      </g>
      <g class="com.sun.star.drawing.ClosedBezierShape">
       <g id="id4">
        <rect class="BoundingBox" stroke="none" fill="none" x="193" y="193" width="2813" height="2813"/>
        <path fill="rgb(255,255,255)" stroke="none" d="M 1643,1216 C 1600,1216 1562,1201 1530,1171 1497,1142 1481,1106 1481,1063 1481,1020 1497,984 1530,954 1562,925 1600,910 1643,910 1688,910 1725,925 1757,954 1789,984 1806,1020 1806,1063 1806,1106 1789,1142 1757,1171 1725,1201 1688,1216 1643,1216 Z M 1731,1972 C 1731,2011 1732,2074 1734,2161 1737,2248 1738,2311 1738,2350 1738,2390 1725,2423 1698,2449 1671,2474 1637,2487 1597,2487 1556,2487 1522,2474 1495,2449 1468,2423 1454,2390 1454,2350 1454,2311 1453,2248 1450,2161 1448,2074 1447,2011 1447,1972 1447,1911 1451,1834 1457,1741 1464,1649 1468,1573 1468,1512 1468,1472 1481,1440 1508,1414 1535,1388 1568,1375 1609,1375 1651,1375 1685,1388 1712,1414 1738,1440 1752,1472 1752,1512 1752,1573 1748,1649 1742,1741 1735,1834 1731,1911 1731,1972 Z M 1600,194 C 809,194 194,809 194,1600 194,2390 809,3004 1600,3004 2390,3004 3004,2390 3004,1600 3004,809 2389,194 1600,194 Z M 1600,406 C 2281,406 2792,917 2792,1600 2792,2282 2282,2792 1600,2792 917,2792 406,2282 406,1600 406,917 917,406 1600,406 Z"/>
       </g>
      </g>
     </g>
    </g>
   </g>
  </g>
 </g>
</svg>