<?xml version="1.0" encoding="UTF-8"?>
<!DOCTYPE svg PUBLIC "-//W3C//DTD SVG 1.1//EN" "http://www.w3.org/Graphics/SVG/1.1/DTD/svg11.dtd">
<svg version="1.2" width="36.4mm" height="32mm" viewBox="0 0 3640 3200" preserveAspectRatio="xMidYMid" fill-rule="evenodd" stroke-width="28.222" stroke-linejoin="round" xmlns="http://www.w3.org/2000/svg" xmlns:ooo="http://xml.openoffice.org/svg/export" xmlns:xlink="http://www.w3.org/1999/xlink" xmlns:presentation="http://sun.com/xmlns/staroffice/presentation" xmlns:smil="http://www.w3.org/2001/SMIL20/" xmlns:anim="urn:oasis:names:tc:opendocument:xmlns:animation:1.0" xml:space="preserve">
 <defs class="ClipPathGroup">
  <clipPath id="presentation_clip_path" clipPathUnits="userSpaceOnUse">
   <rect x="0" y="0" width="3640" height="3200"/>
  </clipPath>
  <clipPath id="presentation_clip_path_shrink" clipPathUnits="userSpaceOnUse">
   <rect x="3" y="3" width="3633" height="3194"/>
  </clipPath>
 </defs>
 <defs class="TextShapeIndex">
  <g ooo:slide="id1" ooo:id-list="id3 id4"/>
 </defs>
 <defs class="EmbeddedBulletChars">
  <g id="bullet-char-template-57356" transform="scale(0.00048828125,-0.00048828125)">
   <path d="M 580,1141 L 1163,571 580,0 -4,571 580,1141 Z"/>
  </g>
  <g id="bullet-char-template-57354" transform="scale(0.00048828125,-0.00048828125)">
   <path d="M 8,1128 L 1137,1128 1137,0 8,0 8,1128 Z"/>
  </g>
  <g id="bullet-char-template-10146" transform="scale(0.00048828125,-0.00048828125)">
   <path d="M 174,0 L 602,739 174,1481 1456,739 174,0 Z M 1358,739 L 309,1346 659,739 1358,739 Z"/>
  </g>
  <g id="bullet-char-template-10132" transform="scale(0.00048828125,-0.00048828125)">
   <path d="M 2015,739 L 1276,0 717,0 1260,543 174,543 174,936 1260,936 717,1481 1274,1481 2015,739 Z"/>
  </g>
  <g id="bullet-char-template-10007" transform="scale(0.00048828125,-0.00048828125)">
   <path d="M 0,-2 C -7,14 -16,27 -25,37 L 356,567 C 262,823 215,952 215,954 215,979 228,992 255,992 264,992 276,990 289,987 310,991 331,999 354,1012 L 381,999 492,748 772,1049 836,1024 860,1049 C 881,1039 901,1025 922,1006 886,937 835,863 770,784 769,783 710,716 594,584 L 774,223 C 774,196 753,168 711,139 L 727,119 C 717,90 699,76 672,76 641,76 570,178 457,381 L 164,-76 C 142,-110 111,-127 72,-127 30,-127 9,-110 8,-76 1,-67 -2,-52 -2,-32 -2,-23 -1,-13 0,-2 Z"/>
  </g>
  <g id="bullet-char-template-10004" transform="scale(0.00048828125,-0.00048828125)">
   <path d="M 285,-33 C 182,-33 111,30 74,156 52,228 41,333 41,471 41,549 55,616 82,672 116,743 169,778 240,778 293,778 328,747 346,684 L 369,508 C 377,444 397,411 428,410 L 1163,1116 C 1174,1127 1196,1133 1229,1133 1271,1133 1292,1118 1292,1087 L 1292,965 C 1292,929 1282,901 1262,881 L 442,47 C 390,-6 338,-33 285,-33 Z"/>
  </g>
  <g id="bullet-char-template-9679" transform="scale(0.00048828125,-0.00048828125)">
   <path d="M 813,0 C 632,0 489,54 383,161 276,268 223,411 223,592 223,773 276,916 383,1023 489,1130 632,1184 813,1184 992,1184 1136,1130 1245,1023 1353,916 1407,772 1407,592 1407,412 1353,268 1245,161 1136,54 992,0 813,0 Z"/>
  </g>
  <g id="bullet-char-template-8226" transform="scale(0.00048828125,-0.00048828125)">
   <path d="M 346,457 C 273,457 209,483 155,535 101,586 74,649 74,723 74,796 101,859 155,911 209,963 273,989 346,989 419,989 480,963 531,910 582,859 608,796 608,723 608,648 583,586 532,535 482,483 420,457 346,457 Z"/>
  </g>
  <g id="bullet-char-template-8211" transform="scale(0.00048828125,-0.00048828125)">
   <path d="M -4,459 L 1135,459 1135,606 -4,606 -4,459 Z"/>
  </g>
  <g id="bullet-char-template-61548" transform="scale(0.00048828125,-0.00048828125)">
   <path d="M 173,740 C 173,903 231,1043 346,1159 462,1274 601,1332 765,1332 928,1332 1067,1274 1183,1159 1299,1043 1357,903 1357,740 1357,577 1299,437 1183,322 1067,206 928,148 765,148 601,148 462,206 346,322 231,437 173,577 173,740 Z"/>
  </g>
 </defs>
 <g>
  <g id="id2" class="Master_Slide">
   <g id="bg-id2" class="Background"/>
   <g id="bo-id2" class="BackgroundObjects"/>
  </g>
 </g>
 <g class="SlideGroup">
  <g>
   <g id="container-id1">
    <g id="id1" class="Slide" clip-path="url(#presentation_clip_path)">
     <g class="Page">
      <g class="com.sun.star.drawing.ClosedBezierShape">
       <g id="id3">
        <rect class="BoundingBox" stroke="none" fill="none" x="0" y="0" width="3639" height="3200"/>
        <path fill="rgb(255,215,0)" stroke="none" d="M 1817,2325 C 1854,2325 1886,2313 1911,2289 1936,2265 1949,2235 1949,2198 L 1949,1103 C 1949,1066 1936,1036 1911,1012 1885,987 1854,975 1817,975 1779,975 1747,987 1722,1012 1696,1036 1683,1066 1683,1103 1683,1198 1682,1340 1680,1531 1679,1720 1678,1862 1678,1957 1678,1984 1679,2025 1680,2078 1682,2131 1683,2171 1683,2198 1683,2235 1696,2265 1721,2289 1746,2313 1778,2325 1817,2325 Z M 1814,2700 C 1848,2700 1880,2688 1908,2663 1936,2638 1950,2608 1950,2573 1950,2539 1934,2501 1901,2461 1866,2417 1828,2395 1788,2395 1752,2395 1720,2407 1692,2431 1663,2455 1649,2485 1649,2521 1649,2556 1665,2594 1698,2634 1734,2678 1772,2700 1814,2700 Z M 1820,462 C 1831,461 1844,467 1860,484 1876,501 1895,529 1916,568 L 1916,568 3189,2769 C 3210,2808 3224,2839 3230,2862 3237,2885 3236,2899 3230,2908 3225,2916 3212,2924 3188,2929 3164,2933 3130,2935 3086,2935 L 3086,2935 3086,2935 C 2214,2935 1424,2936 551,2936 L 551,2936 551,2936 C 504,2937 469,2935 445,2930 421,2924 409,2917 404,2907 399,2897 399,2881 407,2856 416,2831 432,2797 455,2756 L 455,2756 C 877,2025 1245,1364 1722,567 1743,532 1762,505 1778,488 1795,470 1809,463 1820,462 Z M 1815,269 C 1765,270 1714,296 1683,349 1144,1249 793,1919 255,2818 L 255,2818 254,2819 C 223,2878 223,2940 248,2987 274,3033 325,3065 389,3066 L 389,3066 389,3066 3249,3066 3249,3066 3249,3066 C 3322,3065 3370,3026 3392,2978 3415,2931 3413,2875 3390,2834 L 3390,2834 3390,2834 1955,350 1955,350 1955,350 1955,350 C 1928,300 1877,272 1824,269 L 1815,269 Z M 1677,84 C 1747,-37 1904,-19 1962,86 L 3620,2954 C 3665,3037 3628,3195 3471,3197 2334,3197 1304,3198 168,3198 68,3196 3,3129 0,3043 L 0,3031 C 1,3001 10,2968 27,2936 648,1897 1055,1123 1677,84 Z"/>
       </g>
      </g>
      <g class="com.sun.star.drawing.ClosedBezierShape">
       <g id="id4">
        <rect class="BoundingBox" stroke="none" fill="none" x="229" y="268" width="3181" height="2800"/>
        <path fill="rgb(0,0,0)" stroke="none" d="M 1817,2325 C 1778,2325 1746,2313 1721,2289 1696,2265 1683,2235 1683,2198 1683,2171 1682,2131 1680,2078 1679,2025 1678,1984 1678,1957 1678,1862 1679,1720 1680,1531 1682,1340 1683,1198 1683,1103 1683,1066 1696,1036 1722,1012 1747,987 1779,975 1817,975 1854,975 1885,987 1911,1012 1936,1036 1949,1066 1949,1103 L 1949,2198 C 1949,2235 1936,2265 1911,2289 1886,2313 1854,2325 1817,2325 Z M 1814,2700 C 1772,2700 1734,2678 1698,2634 1665,2594 1649,2556 1649,2521 1649,2485 1663,2455 1692,2431 1720,2407 1752,2395 1788,2395 1828,2395 1866,2417 1901,2461 1934,2501 1950,2539 1950,2573 1950,2608 1936,2638 1908,2663 1880,2688 1848,2700 1814,2700 Z M 1820,462 C 1809,463 1795,470 1778,488 1762,505 1743,532 1722,567 1245,1364 877,2025 455,2756 L 455,2756 C 432,2797 416,2831 407,2856 399,2881 399,2897 404,2907 409,2917 421,2924 445,2930 469,2935 504,2937 551,2936 L 551,2936 551,2936 C 1424,2936 2214,2935 3086,2935 L 3086,2935 3086,2935 C 3130,2935 3164,2933 3188,2929 3212,2924 3225,2916 3230,2908 3236,2899 3237,2885 3230,2862 3224,2839 3210,2808 3189,2769 L 1916,568 1916,568 C 1895,529 1876,501 1860,484 1844,467 1831,461 1820,462 Z M 1815,269 L 1824,269 C 1877,272 1928,300 1955,350 L 1955,350 1955,350 1955,350 3390,2834 3390,2834 3390,2834 C 3413,2875 3415,2931 3392,2978 3370,3026 3322,3065 3249,3066 L 3249,3066 3249,3066 389,3066 389,3066 389,3066 C 325,3065 274,3033 248,2987 223,2940 223,2878 254,2819 L 255,2818 255,2818 C 793,1919 1144,1249 1683,349 1714,296 1765,270 1815,269 Z"/>
       </g>
      </g>
     </g>
    </g>
   </g>
  </g>
 </g>
</svg>