<?xml version="1.0" encoding="UTF-8" standalone="no"?>
<!-- Created with Inkscape (http://www.inkscape.org/) -->

<svg
   width="179.63708mm"
   height="39.908787mm"
   viewBox="0 0 179.63708 39.908787"
   version="1.1"
   id="svg1"
   inkscape:version="1.2.2 (b0a8486541, 2022-12-01)"
   sodipodi:docname="chart_fx_banner_v7.svg"
   xmlns:inkscape="http://www.inkscape.org/namespaces/inkscape"
   xmlns:sodipodi="http://sodipodi.sourceforge.net/DTD/sodipodi-0.dtd"
   xmlns="http://www.w3.org/2000/svg"
   xmlns:svg="http://www.w3.org/2000/svg">
  <sodipodi:namedview
     id="namedview1"
     pagecolor="#ffffff"
     bordercolor="#000000"
     borderopacity="0.25"
     inkscape:showpageshadow="2"
     inkscape:pageopacity="0.0"
     inkscape:pagecheckerboard="0"
     inkscape:deskcolor="#d1d1d1"
     inkscape:document-units="mm"
     inkscape:zoom="1.0378437"
     inkscape:cx="305.92275"
     inkscape:cy="-45.767971"
     inkscape:window-width="1444"
     inkscape:window-height="1236"
     inkscape:window-x="1750"
     inkscape:window-y="230"
     inkscape:window-maximized="0"
     inkscape:current-layer="layer1"
     showgrid="false"
     showguides="true">
    <sodipodi:guide
       position="199.02607,-62.69197"
       orientation="1,0"
       id="guide308"
       inkscape:locked="false" />
  </sodipodi:namedview>
  <defs
     id="defs1">
    <inkscape:path-effect
       effect="fillet_chamfer"
       id="path-effect17"
       is_visible="true"
       lpeversion="1"
       nodesatellites_param="F,0,0,1,0,5.1461537,0,1 @ F,0,0,1,0,0,0,1 @ F,0,0,1,0,0,0,1 @ F,0,1,1,0,5.1461537,0,1"
       radius="0"
       unit="px"
       method="auto"
       mode="F"
       chamfer_steps="1"
       flexible="false"
       use_knot_distance="true"
       apply_no_radius="true"
       apply_with_radius="true"
       only_selected="false"
       hide_knots="false" />
    <inkscape:path-effect
       effect="fillet_chamfer"
       id="path-effect15"
       is_visible="true"
       lpeversion="1"
       nodesatellites_param="F,0,0,1,0,5.1461537,0,1 @ F,0,0,1,0,0,0,1 @ F,0,0,1,0,0,0,1 @ F,0,1,1,0,5.1461537,0,1"
       radius="0"
       unit="px"
       method="auto"
       mode="F"
       chamfer_steps="1"
       flexible="false"
       use_knot_distance="true"
       apply_no_radius="true"
       apply_with_radius="true"
       only_selected="false"
       hide_knots="false" />
    <inkscape:path-effect
       effect="fillet_chamfer"
       id="path-effect13"
       is_visible="true"
       lpeversion="1"
       nodesatellites_param="F,0,0,1,0,5.1461537,0,1 @ F,0,0,1,0,0,0,1 @ F,0,0,1,0,0,0,1 @ F,0,1,1,0,5.1461537,0,1"
       radius="0"
       unit="px"
       method="auto"
       mode="F"
       chamfer_steps="1"
       flexible="false"
       use_knot_distance="true"
       apply_no_radius="true"
       apply_with_radius="true"
       only_selected="false"
       hide_knots="false" />
    <rect
       x="-323.22876"
       y="-228.93771"
       width="1517.2609"
       height="962.9942"
       id="rect7" />
    <inkscape:path-effect
       effect="fillet_chamfer"
       id="path-effect6"
       is_visible="true"
       lpeversion="1"
       nodesatellites_param="F,0,0,1,0,5.1461537,0,1 @ F,0,0,1,0,0,0,1 @ F,0,0,1,0,0,0,1 @ F,0,1,1,0,5.1461537,0,1"
       radius="0"
       unit="px"
       method="auto"
       mode="F"
       chamfer_steps="1"
       flexible="false"
       use_knot_distance="true"
       apply_no_radius="true"
       apply_with_radius="true"
       only_selected="false"
       hide_knots="false" />
    <inkscape:path-effect
       effect="fillet_chamfer"
       id="path-effect5"
       is_visible="true"
       lpeversion="1"
       nodesatellites_param="F,0,0,1,0,0,0,1 @ F,0,0,1,0,5.2213868,0,1 @ F,0,1,1,0,5.2213868,0,1 @ F,0,0,1,0,0,0,1"
       radius="0"
       unit="px"
       method="auto"
       mode="F"
       chamfer_steps="1"
       flexible="false"
       use_knot_distance="true"
       apply_no_radius="true"
       apply_with_radius="true"
       only_selected="false"
       hide_knots="false" />
    <inkscape:path-effect
       effect="fillet_chamfer"
       id="path-effect4"
       is_visible="true"
       lpeversion="1"
       nodesatellites_param="F,0,0,1,0,0,0,1 @ F,0,0,1,0,0,0,1 @ F,0,0,1,0,0,0,1 @ F,0,0,1,0,0,0,1"
       radius="0"
       unit="px"
       method="auto"
       mode="F"
       chamfer_steps="1"
       flexible="false"
       use_knot_distance="true"
       apply_no_radius="true"
       apply_with_radius="true"
       only_selected="false"
       hide_knots="false" />
    <inkscape:path-effect
       effect="fillet_chamfer"
       id="path-effect3"
       is_visible="true"
       lpeversion="1"
       nodesatellites_param="F,0,0,1,0,0,0,1 @ F,0,0,1,0,0,0,1 @ F,0,0,1,0,0,0,1 @ F,0,0,1,0,0,0,1"
       radius="0"
       unit="px"
       method="auto"
       mode="F"
       chamfer_steps="1"
       flexible="false"
       use_knot_distance="true"
       apply_no_radius="true"
       apply_with_radius="true"
       only_selected="false"
       hide_knots="false" />
    <inkscape:path-effect
       effect="fillet_chamfer"
       id="path-effect2"
       is_visible="true"
       lpeversion="1"
       nodesatellites_param="F,0,0,1,0,0,0,1 @ F,0,0,1,0,0,0,1 @ F,0,0,1,0,0,0,1 @ F,0,0,1,0,0,0,1"
       radius="0"
       unit="px"
       method="auto"
       mode="F"
       chamfer_steps="1"
       flexible="false"
       use_knot_distance="true"
       apply_no_radius="true"
       apply_with_radius="true"
       only_selected="false"
       hide_knots="false" />
  </defs>
  <g
     inkscape:label="Layer 1"
     inkscape:groupmode="layer"
     id="layer1"
     transform="translate(-16.139582,-26.651603)">
    <path
       id="rect6551"
       style="fill:#fcb342;stroke-width:1.13919;stroke-linecap:round"
       d="m 21.285812,91.54583 h 59.933987 v 54.99805 H 21.285812 a 5.1461537,5.1461537 45 0 1 -5.146154,-5.14615 V 96.691984 a 5.1461537,5.1461537 135 0 1 5.146154,-5.146154 z"
       inkscape:path-effect="#path-effect6"
       inkscape:original-d="m 16.139658,91.54583 h 65.080141 v 54.99805 H 16.139658 Z"
       transform="matrix(0.72563899,0,0,0.72563899,4.4280722,-39.777565)"
       sodipodi:nodetypes="ccccc" />
    <text
       xml:space="preserve"
       transform="scale(0.26458333)"
       id="text7"
       style="font-weight:bold;font-size:64px;font-family:sans-serif;-inkscape-font-specification:'sans-serif Bold';white-space:pre;shape-inside:url(#rect7);display:inline;fill:#fbce8c;fill-opacity:1;stroke:#ff0000;stroke-opacity:1" />
    <path
       style="fill:none;stroke:#ffffff;stroke-width:4.51693;stroke-linecap:butt;stroke-linejoin:miter;stroke-miterlimit:4;stroke-dasharray:none;stroke-opacity:1"
       d="M 20.806125,45.997931 45.488522,51.196098 59.610186,34.896585"
       id="path6553"
       sodipodi:nodetypes="ccc" />
    <path
       id="circle1"
       style="fill:#ffffff;fill-opacity:1;stroke:none;stroke-width:6.5101;stroke-linecap:round;stroke-miterlimit:4;stroke-dasharray:none"
       d="m 55.677738,26.651603 a 8.8549166,8.8549166 0 0 0 -1.196309,4.403866 8.8549166,8.8549166 0 0 0 8.854757,8.854756 8.8549166,8.8549166 0 0 0 0.02791,-0.0021 V 26.651603 Z" />
    <path
       id="path6563"
       style="fill:#ffffff;fill-opacity:1;stroke:none;stroke-width:6.51009;stroke-linecap:round;stroke-miterlimit:4;stroke-dasharray:none"
       d="m 16.139582,36.384152 v 4.479463 a 4.3753626,4.3753626 0 0 1 1.7e-4,0 4.3753626,4.3753626 0 0 1 4.375311,4.375303 4.3753626,4.3753626 0 0 1 -4.375311,4.375495 4.3753626,4.3753626 0 0 1 -1.7e-4,0 v 4.479464 a 8.8549169,8.8549169 0 0 0 1.7e-4,0 8.8549169,8.8549169 0 0 0 8.854775,-8.854959 8.8549169,8.8549169 0 0 0 -8.854775,-8.854766 8.8549169,8.8549169 0 0 0 -1.7e-4,0 z" />
    <circle
       style="fill:#ffffff;fill-opacity:1;stroke:none;stroke-width:6.5101;stroke-linecap:round;stroke-miterlimit:4;stroke-dasharray:none"
       id="circle6565"
       cx="45.478989"
       cy="51.404263"
       r="8.8549166" />
    <circle
       style="fill:#fcb342;fill-opacity:1;stroke:none;stroke-width:3.21673;stroke-linecap:round;stroke-miterlimit:4;stroke-dasharray:none"
       id="circle6567"
       cx="45.478989"
       cy="51.404263"
       r="4.3753629" />
    <path
       id="circle2"
       style="fill:#fcb342;fill-opacity:1;stroke:none;stroke-width:3.21673;stroke-linecap:round;stroke-miterlimit:4;stroke-dasharray:none"
       d="m 63.336186,26.680025 a 4.3753629,4.3753629 0 0 0 -4.375444,4.375444 4.3753629,4.3753629 0 0 0 4.375444,4.374927 4.3753629,4.3753629 0 0 0 0.02791,-0.0021 V 26.68051 a 4.3753629,4.3753629 0 0 0 -0.02791,-5.17e-4 z" />
    <path
       id="rect1"
       style="fill:#fbce8c;fill-opacity:1;stroke-width:2.12449;stroke-linecap:round"
       d="m 70.83236,91.54583 h 177.56085 a 5.2213868,5.2213868 45 0 1 5.22139,5.221387 v 44.555273 a 5.2213868,5.2213868 135 0 1 -5.22139,5.22139 l -177.56085,0 z"
       inkscape:path-effect="#path-effect5"
       inkscape:original-d="M 70.83236,91.54583 H 253.6146 v 54.99805 H 70.83236 Z"
       transform="matrix(0.72563899,0,0,0.72563899,11.744028,-39.777565)"
       sodipodi:nodetypes="ccccc" />
    <g
       id="text6559"
       style="font-size:29.7457px;line-height:1.25;fill:#ffffff;stroke-width:0.446184"
       aria-label="ChartFx">
      <path
         style="font-weight:bold;font-family:'Rocky Text';-inkscape-font-specification:'Rocky Text Bold'"
         d="m 83.092994,53.179823 q 1.398048,0 2.587876,-0.654406 1.189828,-0.654405 2.171437,-1.93347 l 3.361264,3.18279 q -1.368302,1.784742 -3.628976,2.885333 -2.260673,1.10059 -4.670075,1.10059 -2.320164,0 -4.342872,-0.832879 -2.022708,-0.83288 -3.480247,-2.260673 -1.457539,-1.427794 -2.320165,-3.39101 -0.832879,-1.963217 -0.832879,-4.22389 0,-2.260673 0.832879,-4.223889 0.862626,-1.992962 2.320165,-3.420756 1.487285,-1.427794 3.480247,-2.260673 2.022708,-0.83288 4.342872,-0.83288 2.498639,0 4.789058,1.100591 2.290419,1.100591 3.658721,2.944824 l -3.450501,3.272028 Q 86.900444,42.26315 85.621379,41.578999 84.37206,40.865102 82.91452,40.865102 q -1.219573,0 -2.260673,0.475932 -1.0411,0.475931 -1.814488,1.30881 -0.743642,0.803134 -1.189828,1.963217 -0.41644,1.130336 -0.41644,2.439147 0,1.308811 0.446186,2.439148 0.446185,1.130336 1.219574,1.963216 0.803134,0.803134 1.873979,1.279065 1.070845,0.446186 2.320164,0.446186 z m 10.797669,4.28338 V 36.195027 l 4.818803,-0.743642 v 9.161676 q 0.892371,-1.338557 2.111944,-2.022708 1.24932,-0.713897 2.73661,-0.713897 2.23092,0 3.65872,1.487285 1.42779,1.45754 1.42779,3.747959 v 10.351503 h -4.8188 v -8.953456 q 0,-1.279065 -0.7139,-2.052453 -0.68415,-0.803134 -1.84423,-0.803134 -0.77339,0 -1.427797,0.327203 -0.62466,0.297457 -1.130337,0.951862 v 10.529978 z m 22.963687,0.237966 q -2.32017,0 -3.80745,-1.279065 -1.48729,-1.308811 -1.48729,-3.361264 0,-2.111945 1.57652,-3.272027 1.57653,-1.189828 4.40237,-1.189828 0.83288,0 1.6955,0.178474 0.86263,0.148728 1.87398,0.535422 v -1.249319 q 0,-1.100591 -0.77339,-1.665759 -0.74364,-0.565169 -2.26067,-0.565169 -0.86263,0 -1.93347,0.267712 -1.0411,0.237965 -2.37966,0.803134 l -1.66576,-3.361265 q 1.87398,-0.832879 3.59923,-1.249319 1.755,-0.41644 3.4505,-0.41644 3.18279,0 4.93779,1.517031 1.78474,1.517031 1.78474,4.253635 v 9.816081 h -4.75931 v -1.338556 q -1.01135,0.83288 -2.02271,1.219574 -1.01135,0.356948 -2.23092,0.356948 z m -0.86263,-4.729566 q 0,0.743642 0.62466,1.160082 0.62466,0.386694 1.72525,0.386694 0.74364,0 1.42779,-0.178474 0.7139,-0.20822 1.33856,-0.594914 v -1.963216 q -0.6544,-0.148729 -1.33856,-0.237966 -0.6544,-0.08924 -1.30881,-0.08924 -1.18982,0 -1.84423,0.386694 -0.62466,0.386694 -0.62466,1.130337 z m 13.50456,4.4916 V 42.114422 h 4.81881 v 3.480247 q 0.74364,-1.903725 1.75499,-2.825842 1.0411,-0.951862 2.4094,-0.951862 0.50568,0.02974 0.83288,0.118983 0.32721,0.05949 0.77339,0.267711 v 4.134652 q -0.44618,-0.20822 -1.0411,-0.327202 -0.59491,-0.148729 -1.21957,-0.148729 -1.07085,0 -2.02271,0.535423 -0.92212,0.505677 -1.48728,1.368302 v 9.697098 z m 15.46776,-4.729566 v -6.901003 h -2.97457 v -3.718212 h 2.97457 v -4.253635 l 4.8188,-0.981609 v 5.235244 h 4.10491 v 3.718212 h -4.10491 v 5.949141 q 0,1.011353 0.44619,1.427793 0.47593,0.41644 1.57652,0.41644 0.41644,0 0.83288,-0.05949 0.41644,-0.05949 1.13034,-0.267712 v 3.896687 q -0.65441,0.20822 -1.60627,0.327203 -0.95186,0.148728 -1.69551,0.148728 -2.70686,0 -4.1049,-1.249319 -1.39805,-1.24932 -1.39805,-3.688468 z"
         id="path1" />
      <path
         style="letter-spacing:-2.38125px"
         d="m 157.33825,57.463203 v -20.82199 h 14.21845 v 1.992962 h -11.92803 v 7.466171 h 8.15033 v 1.992962 h -8.15033 v 9.369895 z m 12.28339,0 5.5327,-7.46617 -5.26499,-7.049732 h 2.58788 l 4.01567,5.502955 3.95618,-5.502955 h 2.46889 l -5.2055,6.99024 5.62194,7.525662 h -2.58788 l -4.34287,-5.919394 -4.31313,5.919394 z"
         id="path2" />
    </g>
  </g>
</svg>
